<?xml version="1.0" encoding="UTF-8" standalone="no"?>
<!-- Created with Inkscape (http://www.inkscape.org/) -->
<svg
   xmlns:dc="http://purl.org/dc/elements/1.1/"
   xmlns:cc="http://web.resource.org/cc/"
   xmlns:rdf="http://www.w3.org/1999/02/22-rdf-syntax-ns#"
   xmlns:svg="http://www.w3.org/2000/svg"
   xmlns="http://www.w3.org/2000/svg"
   xmlns:xlink="http://www.w3.org/1999/xlink"
   xmlns:sodipodi="http://sodipodi.sourceforge.net/DTD/sodipodi-0.dtd"
   xmlns:inkscape="http://www.inkscape.org/namespaces/inkscape"
   width="777"
   height="555"
   id="svg2"
   sodipodi:version="0.32"
   inkscape:version="0.44+devel"
   sodipodi:docbase="/home/njh/svn/lib2geom/branding"
   sodipodi:docname="2geom-logo.svg"
   version="1.0">
  <metadata
     id="metadata48">
    <rdf:RDF>
      <cc:Work
         rdf:about="">
        <dc:format>image/svg+xml</dc:format>
        <dc:type
           rdf:resource="http://purl.org/dc/dcmitype/StillImage" />
      </cc:Work>
    </rdf:RDF>
  </metadata>
  <sodipodi:namedview
     inkscape:window-height="855"
     inkscape:window-width="1113"
     inkscape:pageshadow="2"
     inkscape:pageopacity="0.0"
     borderopacity="1.0"
     bordercolor="#666666"
     pagecolor="#ffffff"
     id="base"
     inkscape:zoom="0.5"
     inkscape:cx="243.77703"
     inkscape:cy="93.29532"
     inkscape:window-x="3"
     inkscape:window-y="33"
     inkscape:current-layer="layer1"
     showguides="true"
     inkscape:guide-bbox="true" />
  <defs
     id="defs4">
    <linearGradient
       id="linearGradient4094">
      <stop
         style="stop-color:#eeeeec;stop-opacity:1;"
         offset="0"
         id="stop4096" />
      <stop
         style="stop-color:#eeeeec;stop-opacity:0;"
         offset="1"
         id="stop4098" />
    </linearGradient>
    <linearGradient
       id="linearGradient4062">
      <stop
         style="stop-color:#babdb6;stop-opacity:1;"
         offset="0"
         id="stop4064" />
      <stop
         style="stop-color:#babdb6;stop-opacity:0;"
         offset="1"
         id="stop4066" />
    </linearGradient>
    <linearGradient
       id="linearGradient4040">
      <stop
         style="stop-color:#babdb6;stop-opacity:1;"
         offset="0"
         id="stop4042" />
      <stop
         style="stop-color:#babdb6;stop-opacity:0;"
         offset="1"
         id="stop4044" />
    </linearGradient>
    <radialGradient
       xlink:href="#linearGradient4062"
       id="radialGradient4079"
       gradientUnits="userSpaceOnUse"
       cx="8"
       cy="-16"
       fx="8"
       fy="-16"
       r="108" />
    <linearGradient
       xlink:href="#linearGradient4040"
       id="linearGradient4081"
       gradientUnits="userSpaceOnUse"
       gradientTransform="translate(80,376)"
       x1="328.5"
       y1="-43.664978"
       x2="328.5"
       y2="116.68156" />
    <linearGradient
       xlink:href="#linearGradient4094"
       id="linearGradient4116"
       gradientUnits="userSpaceOnUse"
       gradientTransform="matrix(1.35905,0,0,1.35905,203.6646,-185.2813)"
       x1="95.105873"
       y1="363.72418"
       x2="95.105873"
       y2="502.67734" />
    <linearGradient
       inkscape:collect="always"
       xlink:href="#linearGradient4040"
       id="linearGradient3175"
       gradientUnits="userSpaceOnUse"
       gradientTransform="translate(0,-2.121444)"
       x1="426.27966"
       y1="483.83633"
       x2="426.27966"
       y2="522.72052" />
    <linearGradient
       inkscape:collect="always"
       xlink:href="#linearGradient4094"
       id="linearGradient3177"
       gradientUnits="userSpaceOnUse"
       x1="407.09628"
       y1="374.48508"
       x2="407.09628"
       y2="485.16641" />
  </defs>
  <g
     inkscape:label="Layer 1"
     id="layer1"
     inkscape:groupmode="layer">
    <g
       id="g2975"
       transform="matrix(1.476681,0,0,1.476681,561.2694,72.30331)">
      <g
         id="g2917"
         transform="matrix(0.859763,0,0,0.859763,-403.3269,-5.079596)">
        <g
           id="g2919"
           transform="matrix(0.319896,0,0,0.319896,133.7871,48.42974)">
          <path
             id="path2921"
             d="M 163.15,27.83 L 28.81,165.3 C -16.58,221.51 59.7,214.97 92.4,231.16 C 104.13,243.15 47.44,252 59.17,264 C 70.9,275.99 130.1,287.1 141.85,299.09 C 153.58,311.08 117.84,323.8 129.57,335.79 C 141.3,347.78 168.43,336.42 173.51,364.1 C 177.13,383.88 222.4,372.6 244.54,356.4 C 256.27,344.4 222.1,345.53 233.83,333.54 C 263,303.71 290.16,322.7 300.14,292.81 C 305.07,278.04 257.2,270.04 268.95,258.05 C 302.7,238.34 419.35,225.51 364,170.16 L 224.75,27.83 C 207.72,11.48 179.3,11.3 163.15,27.83 z M 130.99,238.57 C 134,238.57 231.54,251.61 193.9,261.92 C 179.72,265.8 113.53,238.57 130.99,238.57 z M 317.46,292.81 C 317.46,299.63 367.71,304.1 367.71,291.2 C 360.55,270.48 323.4,271.88 317.46,292.81 z M 91.1,329.05 C 103,339.34 121.38,326.49 126.89,312.13 C 115.36,296.81 72.2,312.68 91.1,329.05 z M 311.16,306.82 C 295.82,320.58 312.88,334.54 328,325.65 C 331.37,322.23 327.91,310.24 311.16,306.82 z "
             style="fill:#2e3436" />
          <path
             id="path2923"
             d="M 38.39,172.2 C 2.87,213.14 91.96,216.235 114.65,217.5 L 219.35,39.97 C 203.58,24 184.153,25.45 170.16,40.15 L 38.39,172.2 z "
             style="opacity:0.5;fill:#888a85" />
          <path
             id="path2925"
             d="M 216.63,37.47 L 269.78,91.45 C 274.82,96.6 275.91315,108.88098 271.93,109.45 C 266.29292,110.2553 260.02293,94.034313 251.80374,94.034313 C 242.7616,94.034313 245.43878,123.58602 238.07227,123.58602 C 230.29748,123.58602 227.72697,107.96 218.30004,107.96 C 210.67739,107.96 205.51399,129.13114 194.80001,129.13114 C 185.2927,129.13114 177.02987,83.24 171.29999,83.24 C 166.28062,83.24 163.47697,123.96 152.33,123.96 C 133.73263,123.96 105.14,123.84 105.14,123.84 C 95.7,123.82 97.27,114.63 106.4,104.78 C 125.16,84.53 161.15,49.43 172.85,37.47 C 184.61,25.45 205.1,25.79 216.63,37.47 z "
             style="fill:white"
             sodipodi:nodetypes="cccsssssscccc" />
        </g>
        <g
           transform="matrix(0.822396,0,0,0.822396,-78.6988,56.73695)"
           id="g2927">
          <g
             transform="translate(-130,-273)"
             id="g2929">
            <path
               d="M 305.4758,471.72063 C 311.48007,472.08085 327.24989,470.94736 336.78632,470.94736 C 346.68674,470.94736 347.5144,484.2849 337.11958,484.2849 C 324.28435,484.2849 303.81989,484.2849 291.35926,484.2849 C 282.85144,484.2849 282.90486,471.06154 291.37894,465.87185 C 313.2835,452.45706 330.8549,446.25559 330.8549,430.32895 C 330.8549,414.14288 313.01641,410.44714 294.22545,423.46064 C 286.52204,428.79556 280.65009,417.57523 289.73177,411.30385 C 342.00086,375.20926 373.64334,447.681 305.4758,471.72063 z "
               sodipodi:nodetypes="csssszssc"
               id="path2933"
               style="font-size:81.82437897px;font-style:normal;font-weight:normal;fill:#4e9a06;fill-opacity:1;stroke:none;stroke-width:1px;stroke-linecap:butt;stroke-linejoin:miter;stroke-opacity:1;font-family:Bitstream Vera Sans" />
            <path
               style="fill:#2e3436"
               id="path2935"
               sodipodi:nodetypes="czcsssssscczz"
               d="M 393.20738,432.84207 C 377.51437,419.33503 348.06935,427.80392 348.06935,457.87271 C 348.06935,487.7438 385.42678,488.6843 393.20738,476.49658 C 393.20738,498.5157 376.85948,500.491 360.24483,500.491 C 351.83341,500.491 351.79821,513.6304 360.24483,513.6304 C 397.68788,513.6304 405.95846,500.24558 405.95846,463.40796 L 405.95846,445.30451 C 405.95846,413.32137 412.75221,407.26785 418.72103,399.48512 C 424.43499,392.0347 414.3803,386.12501 408.09126,392.41405 C 400.88868,399.61663 393.20738,418.76916 393.20738,432.84207 z M 394.07442,455.28269 C 394.07442,477.30454 361.35439,480.7848 361.35439,456.80248 C 361.35439,432.82016 394.07442,432.86532 394.07442,455.28269 z " />
            <path
               style="fill:#2e3436"
               d="M 467.65253,451.10849 C 467.65253,455.90467 466.10025,460.96333 457.59911,460.96333 L 426.72265,460.96333 C 429.88752,477.49925 446.07346,476.86959 460.67608,468.98769 C 465.65639,466.29953 471.02388,475.44023 463.63648,479.73285 C 457.5079,483.29402 450.63347,484.79296 444.01384,484.79296 C 426.83937,484.79296 414.68639,474.35145 414.68639,455.81955 C 414.68639,436.87441 428.63405,427.4802 442.21468,427.27235 C 455.0988,427.0751 467.65253,437.07142 467.65253,451.10849 z M 457.00644,451.23927 C 457.00644,443.65626 451.56087,437.80897 442.07819,437.80897 C 432.79456,437.80897 426.94739,442.79041 426.94739,451.61269 L 457.00644,451.23927 z M 487.00636,456.0663 C 487.00636,467.01874 492.30496,475.27208 501.50883,475.27208 C 511.4198,475.27208 516.01129,467.19874 516.01129,456.0663 C 516.01129,444.80216 511.15582,437.74439 501.50883,437.74439 C 491.86183,437.74439 487.00636,445.24554 487.00636,456.0663 z M 501.52397,427.31949 C 519.25375,427.31949 527.46733,440.23334 527.46733,456.0663 C 527.46733,471.90258 518.92347,484.81315 501.52397,484.81315 C 484.30084,484.81315 476.06281,471.42268 476.06281,456.0663 C 476.06281,440.70661 483.62369,427.31949 501.52397,427.31949 z M 579.13663,439.21462 C 594.12129,417.42807 620.26784,430.38654 620.26784,449.17669 C 620.26784,449.17669 620.26784,471.54837 620.26784,479.60745 C 620.26784,486.60242 609.28089,486.86611 609.28089,479.60745 C 609.28089,471.61985 609.28096,453.41443 609.28096,453.41443 C 609.28096,434.68517 585.23286,434.2448 585.23286,453.41443 C 585.23286,453.41443 585.23287,472.0626 585.23287,479.60745 C 585.23287,486.61463 573.04036,486.88405 573.04036,479.60745 C 573.04036,471.3713 573.04042,453.41443 573.04042,453.41443 C 573.04042,433.02256 548.99232,433.4684 548.99232,453.41443 C 548.99232,453.41443 548.99232,470.61637 548.99232,479.60745 C 548.99232,486.62089 536.44778,486.76369 536.44778,479.60745 C 536.44778,471.04673 536.82572,450.17669 536.82572,450.17669 C 536.82572,428.95063 565.79734,417.47642 579.13663,439.21462 z "
               id="path2937"
               sodipodi:nodetypes="cccsssssccscccsssccssscccssccssccsscc" />
          </g>
        </g>
      </g>
    </g>
    <g
       id="inkscape-logo"
       transform="matrix(0.224268,0,0,0.224268,-288.3483,311.2267)">
      <path
         id="icecap"
         style="fill:white"
         d="M 217,44 L 270,98 C 275,104 275,114 272,116 L 246,95 L 240,127 L 218,115 L 183,137 L 171,90 L 152,132 L 111,132 C 102,132 96,123 105,113 C 124,92 161,56 173,44 C 185,32 205,33 217,44 z " />
    </g>
  </g>
</svg>
