<?xml version="1.0" encoding="UTF-8" standalone="no"?>
<!-- Created with Inkscape (http://www.inkscape.org/) -->
<svg
   xmlns:dc="http://purl.org/dc/elements/1.1/"
   xmlns:cc="http://web.resource.org/cc/"
   xmlns:rdf="http://www.w3.org/1999/02/22-rdf-syntax-ns#"
   xmlns:svg="http://www.w3.org/2000/svg"
   xmlns="http://www.w3.org/2000/svg"
   xmlns:xlink="http://www.w3.org/1999/xlink"
   xmlns:sodipodi="http://sodipodi.sourceforge.net/DTD/sodipodi-0.dtd"
   xmlns:inkscape="http://www.inkscape.org/namespaces/inkscape"
   width="777"
   height="555"
   id="svg2"
   sodipodi:version="0.32"
   inkscape:version="0.43+devel"
   sodipodi:docbase="/home/andy/Documents"
   sodipodi:docname="2geom.svg"
   version="1.0">
  <metadata
     id="metadata48">
    <rdf:RDF>
      <cc:Work
         rdf:about="">
        <dc:format>image/svg+xml</dc:format>
        <dc:type
           rdf:resource="http://purl.org/dc/dcmitype/StillImage" />
      </cc:Work>
    </rdf:RDF>
  </metadata>
  <sodipodi:namedview
     inkscape:window-height="855"
     inkscape:window-width="1113"
     inkscape:pageshadow="2"
     inkscape:pageopacity="0.0"
     borderopacity="1.0"
     bordercolor="#666666"
     pagecolor="#ffffff"
     id="base"
     inkscape:zoom="0.5"
     inkscape:cx="243.77703"
     inkscape:cy="94.29532"
     inkscape:window-x="3"
     inkscape:window-y="33"
     inkscape:current-layer="layer1"
     showguides="true"
     inkscape:guide-bbox="true" />
  <defs
     id="defs4">
    <linearGradient
       id="linearGradient4094">
      <stop
         style="stop-color:#eeeeec;stop-opacity:1;"
         offset="0"
         id="stop4096" />
      <stop
         style="stop-color:#eeeeec;stop-opacity:0;"
         offset="1"
         id="stop4098" />
    </linearGradient>
    <linearGradient
       id="linearGradient4062">
      <stop
         style="stop-color:#babdb6;stop-opacity:1;"
         offset="0"
         id="stop4064" />
      <stop
         style="stop-color:#babdb6;stop-opacity:0;"
         offset="1"
         id="stop4066" />
    </linearGradient>
    <linearGradient
       id="linearGradient4040">
      <stop
         style="stop-color:#babdb6;stop-opacity:1;"
         offset="0"
         id="stop4042" />
      <stop
         style="stop-color:#babdb6;stop-opacity:0;"
         offset="1"
         id="stop4044" />
    </linearGradient>
    <radialGradient
       xlink:href="#linearGradient4062"
       id="radialGradient4079"
       gradientUnits="userSpaceOnUse"
       cx="8"
       cy="-16"
       fx="8"
       fy="-16"
       r="108" />
    <linearGradient
       xlink:href="#linearGradient4040"
       id="linearGradient4081"
       gradientUnits="userSpaceOnUse"
       gradientTransform="translate(80,376)"
       x1="328.5"
       y1="-43.664978"
       x2="328.5"
       y2="116.68156" />
    <linearGradient
       xlink:href="#linearGradient4094"
       id="linearGradient4116"
       gradientUnits="userSpaceOnUse"
       gradientTransform="matrix(1.35905,0,0,1.35905,203.6646,-185.2813)"
       x1="95.105873"
       y1="363.72418"
       x2="95.105873"
       y2="502.67734" />
    <linearGradient
       inkscape:collect="always"
       xlink:href="#linearGradient4040"
       id="linearGradient3175"
       gradientUnits="userSpaceOnUse"
       gradientTransform="translate(0,-2.121444)"
       x1="426.27966"
       y1="483.83633"
       x2="426.27966"
       y2="522.72052" />
    <linearGradient
       inkscape:collect="always"
       xlink:href="#linearGradient4094"
       id="linearGradient3177"
       gradientUnits="userSpaceOnUse"
       x1="407.09628"
       y1="374.48508"
       x2="407.09628"
       y2="485.16641" />
  </defs>
  <g
     inkscape:label="Layer 1"
     id="layer1"
     inkscape:groupmode="layer">
    <g
       id="g2975"
       transform="matrix(1.476681,0,0,1.476681,561.2694,72.30331)">
      <g
         id="g2917"
         transform="matrix(0.859763,0,0,0.859763,-403.3269,-5.079596)">
        <g
           id="g2919"
           transform="matrix(0.319896,0,0,0.319896,133.7871,48.42974)">
          <path
             id="path2921"
             d="M 163.15,27.83 L 28.81,165.3 C -16.58,221.51 59.7,214.97 92.4,231.16 C 104.13,243.15 47.44,252 59.17,264 C 70.9,275.99 130.1,287.1 141.85,299.09 C 153.58,311.08 117.84,323.8 129.57,335.79 C 141.3,347.78 168.43,336.42 173.51,364.1 C 177.13,383.88 222.4,372.6 244.54,356.4 C 256.27,344.4 222.1,345.53 233.83,333.54 C 263,303.71 290.16,322.7 300.14,292.81 C 305.07,278.04 257.2,270.04 268.95,258.05 C 302.7,238.34 419.35,225.51 364,170.16 L 224.75,27.83 C 207.72,11.48 179.3,11.3 163.15,27.83 z M 130.99,238.57 C 134,238.57 231.54,251.61 193.9,261.92 C 179.72,265.8 113.53,238.57 130.99,238.57 z M 317.46,292.81 C 317.46,299.63 367.71,304.1 367.71,291.2 C 360.55,270.48 323.4,271.88 317.46,292.81 z M 91.1,329.05 C 103,339.34 121.38,326.49 126.89,312.13 C 115.36,296.81 72.2,312.68 91.1,329.05 z M 311.16,306.82 C 295.82,320.58 312.88,334.54 328,325.65 C 331.37,322.23 327.91,310.24 311.16,306.82 z "
             style="fill:#2e3436" />
          <path
             id="path2923"
             d="M 38.39,172.2 C 2.87,213.14 91.96,216.235 114.65,217.5 L 219.35,39.97 C 203.58,24 184.153,25.45 170.16,40.15 L 38.39,172.2 z "
             style="opacity:0.5;fill:#888a85" />
          <path
             id="path2925"
             d="M 216.63,37.47 L 269.78,91.45 C 274.82,96.6 275.91315,108.88098 271.93,109.45 C 266.29292,110.2553 260.02293,94.034313 251.80374,94.034313 C 242.7616,94.034313 245.43878,123.58602 238.07227,123.58602 C 230.29748,123.58602 227.72697,107.96 218.30004,107.96 C 210.67739,107.96 205.51399,129.13114 194.80001,129.13114 C 185.2927,129.13114 177.02987,83.24 171.29999,83.24 C 166.28062,83.24 163.47697,123.96 152.33,123.96 C 133.73263,123.96 105.14,123.84 105.14,123.84 C 95.7,123.82 97.27,114.63 106.4,104.78 C 125.16,84.53 161.15,49.43 172.85,37.47 C 184.61,25.45 205.1,25.79 216.63,37.47 z "
             style="fill:white"
             sodipodi:nodetypes="cccsssssscccc" />
        </g>
        <g
           transform="matrix(0.822396,0,0,0.822396,-78.6988,56.73695)"
           id="g2927">
          <g
             transform="translate(-130,-273)"
             id="g2929">
            <path
               d="M 305.4758,471.72063 C 311.48007,472.08085 327.24989,470.94736 336.78632,470.94736 C 346.68674,470.94736 347.5144,484.2849 337.11958,484.2849 C 324.28435,484.2849 303.81989,484.2849 291.35926,484.2849 C 282.85144,484.2849 282.90486,471.06154 291.37894,465.87185 C 313.2835,452.45706 330.8549,446.25559 330.8549,430.32895 C 330.8549,414.14288 313.01641,410.44714 294.22545,423.46064 C 286.52204,428.79556 280.65009,417.57523 289.73177,411.30385 C 342.00086,375.20926 373.64334,447.681 305.4758,471.72063 z "
               sodipodi:nodetypes="csssszssc"
               id="path2933"
               style="font-size:81.82437897px;font-style:normal;font-weight:normal;fill:#4e9a06;fill-opacity:1;stroke:none;stroke-width:1px;stroke-linecap:butt;stroke-linejoin:miter;stroke-opacity:1;font-family:Bitstream Vera Sans" />
            <path
               style="fill:#2e3436"
               id="path2935"
               sodipodi:nodetypes="czcsssssscczz"
               d="M 393.20738,432.84207 C 377.51437,419.33503 348.06935,427.80392 348.06935,457.87271 C 348.06935,487.7438 385.42678,488.6843 393.20738,476.49658 C 393.20738,498.5157 376.85948,500.491 360.24483,500.491 C 351.83341,500.491 351.79821,513.6304 360.24483,513.6304 C 397.68788,513.6304 405.95846,500.24558 405.95846,463.40796 L 405.95846,445.30451 C 405.95846,413.32137 412.75221,407.26785 418.72103,399.48512 C 424.43499,392.0347 414.3803,386.12501 408.09126,392.41405 C 400.88868,399.61663 393.20738,418.76916 393.20738,432.84207 z M 394.07442,455.28269 C 394.07442,477.30454 361.35439,480.7848 361.35439,456.80248 C 361.35439,432.82016 394.07442,432.86532 394.07442,455.28269 z " />
            <path
               style="fill:#2e3436"
               d="M 467.65253,451.10849 C 467.65253,455.90467 466.10025,460.96333 457.59911,460.96333 L 426.72265,460.96333 C 429.88752,477.49925 446.07346,476.86959 460.67608,468.98769 C 465.65639,466.29953 471.02388,475.44023 463.63648,479.73285 C 457.5079,483.29402 450.63347,484.79296 444.01384,484.79296 C 426.83937,484.79296 414.68639,474.35145 414.68639,455.81955 C 414.68639,436.87441 428.63405,427.4802 442.21468,427.27235 C 455.0988,427.0751 467.65253,437.07142 467.65253,451.10849 z M 457.00644,451.23927 C 457.00644,443.65626 451.56087,437.80897 442.07819,437.80897 C 432.79456,437.80897 426.94739,442.79041 426.94739,451.61269 L 457.00644,451.23927 z M 487.00636,456.0663 C 487.00636,467.01874 492.30496,475.27208 501.50883,475.27208 C 511.4198,475.27208 516.01129,467.19874 516.01129,456.0663 C 516.01129,444.80216 511.15582,437.74439 501.50883,437.74439 C 491.86183,437.74439 487.00636,445.24554 487.00636,456.0663 z M 501.52397,427.31949 C 519.25375,427.31949 527.46733,440.23334 527.46733,456.0663 C 527.46733,471.90258 518.92347,484.81315 501.52397,484.81315 C 484.30084,484.81315 476.06281,471.42268 476.06281,456.0663 C 476.06281,440.70661 483.62369,427.31949 501.52397,427.31949 z M 579.13663,439.21462 C 594.12129,417.42807 620.26784,430.38654 620.26784,449.17669 C 620.26784,449.17669 620.26784,471.54837 620.26784,479.60745 C 620.26784,486.60242 609.28089,486.86611 609.28089,479.60745 C 609.28089,471.61985 609.28096,453.41443 609.28096,453.41443 C 609.28096,434.68517 585.23286,434.2448 585.23286,453.41443 C 585.23286,453.41443 585.23287,472.0626 585.23287,479.60745 C 585.23287,486.61463 573.04036,486.88405 573.04036,479.60745 C 573.04036,471.3713 573.04042,453.41443 573.04042,453.41443 C 573.04042,433.02256 548.99232,433.4684 548.99232,453.41443 C 548.99232,453.41443 548.99232,470.61637 548.99232,479.60745 C 548.99232,486.62089 536.44778,486.76369 536.44778,479.60745 C 536.44778,471.04673 536.82572,450.17669 536.82572,450.17669 C 536.82572,428.95063 565.79734,417.47642 579.13663,439.21462 z "
               id="path2937"
               sodipodi:nodetypes="cccsssssccscccsssccssscccssccssccsscc" />
          </g>
        </g>
      </g>
    </g>
    <g
       id="inkscape-logo"
       transform="matrix(0.224268,0,0,0.224268,-288.3483,311.2267)">
      <path
         id="icecap"
         style="fill:white"
         d="M 217,44 L 270,98 C 275,104 275,114 272,116 L 246,95 L 240,127 L 218,115 L 183,137 L 171,90 L 152,132 L 111,132 C 102,132 96,123 105,113 C 124,92 161,56 173,44 C 185,32 205,33 217,44 z " />
    </g>
    <g
       transform="translate(94,-18)"
       id="g3248">
      <g
         id="g3250"
         transform="matrix(0.859763,0,0,0.859763,358.6731,-35.0796)">
        <g
           id="g3252"
           transform="matrix(0.33268,0,0,0.33268,130.6907,44.19129)" />
        <g
           transform="matrix(0.822396,0,0,0.822396,-78.6988,56.73695)"
           id="g3254">
          <g
             transform="translate(-130,-273)"
             id="g3256">
            <path
               d="M 309.41372,472.98622 C 314.81319,473.31016 328.99452,472.29084 337.57035,472.29084 C 346.47351,472.29084 347.2178,484.2849 337.87004,484.2849 C 326.3277,484.2849 307.92461,484.2849 296.71913,484.2849 C 289.0683,484.2849 289.11634,472.39352 296.73683,467.72658 C 316.43496,455.66306 332.2364,450.08626 332.2364,435.7639 C 332.2364,421.20824 316.19477,417.88477 299.29661,429.58743 C 292.36916,434.38496 287.08869,424.29485 295.25558,418.65518 C 342.25964,386.19638 370.71479,451.36809 309.41372,472.98622 z "
               sodipodi:nodetypes="csssszssc"
               id="path3260"
               style="font-size:81.82437897px;font-style:normal;font-weight:normal;fill:#4e9a06;fill-opacity:1;stroke:none;stroke-width:1px;stroke-linecap:butt;stroke-linejoin:miter;stroke-opacity:1;font-family:Bitstream Vera Sans" />
            <path
               style="fill:#2e3436"
               id="path3262"
               sodipodi:nodetypes="czcsssssscczz"
               d="M 393.20738,432.84207 C 377.51437,419.33503 348.06935,427.80392 348.06935,457.87271 C 348.06935,487.7438 385.42678,488.6843 393.20738,476.49658 C 393.20738,498.5157 376.85948,500.491 360.24483,500.491 C 351.83341,500.491 351.79821,513.6304 360.24483,513.6304 C 397.68788,513.6304 405.95846,500.24558 405.95846,463.40796 L 405.95846,445.30451 C 405.95846,413.32137 412.75221,407.26785 418.72103,399.48512 C 424.43499,392.0347 414.3803,386.12501 408.09126,392.41405 C 400.88868,399.61663 393.20738,418.76916 393.20738,432.84207 z M 394.07442,455.28269 C 394.07442,477.30454 361.35439,480.7848 361.35439,456.80248 C 361.35439,432.82016 394.07442,432.86532 394.07442,455.28269 z " />
            <path
               style="fill:#2e3436"
               d="M 467.65253,451.10849 C 467.65253,455.90467 464.91509,460.96333 456.41395,460.96333 L 426.72265,460.96333 C 429.88752,477.49925 446.07346,476.86959 460.67608,468.98769 C 465.65639,466.29953 471.02388,475.44023 463.63648,479.73285 C 457.5079,483.29402 450.63347,484.79296 444.01384,484.79296 C 426.83937,484.79296 414.68639,474.35145 414.68639,455.81955 C 414.68639,436.87441 428.63405,427.4802 442.21468,427.27235 C 455.0988,427.0751 467.65253,437.07142 467.65253,451.10849 z M 457.00644,451.23927 C 457.00644,443.65626 451.56087,437.80897 442.07819,437.80897 C 432.79456,437.80897 426.94739,442.79041 426.94739,451.61269 L 457.00644,451.23927 z M 487.00636,456.0663 C 487.00636,467.01874 492.30496,475.27208 501.50883,475.27208 C 511.4198,475.27208 516.01129,467.19874 516.01129,456.0663 C 516.01129,444.80216 511.15582,437.74439 501.50883,437.74439 C 491.86183,437.74439 487.00636,445.24554 487.00636,456.0663 z M 501.52397,427.31949 C 519.25375,427.31949 527.46733,440.23334 527.46733,456.0663 C 527.46733,471.90258 518.92347,484.81315 501.52397,484.81315 C 484.30084,484.81315 476.06281,471.42268 476.06281,456.0663 C 476.06281,440.70661 483.62369,427.31949 501.52397,427.31949 z M 579.13663,439.21462 C 594.12129,417.42807 620.26784,430.38654 620.26784,449.17669 C 620.26784,449.17669 620.26784,471.54837 620.26784,479.60745 C 620.26784,486.60242 609.28089,486.86611 609.28089,479.60745 C 609.28089,471.61985 609.28096,453.41443 609.28096,453.41443 C 609.28096,434.68517 585.23286,434.2448 585.23286,453.41443 C 585.23286,453.41443 585.23287,472.0626 585.23287,479.60745 C 585.23287,486.61463 573.04036,486.88405 573.04036,479.60745 C 573.04036,471.3713 573.04042,453.41443 573.04042,453.41443 C 573.04042,433.02256 548.99232,433.4684 548.99232,453.41443 C 548.99232,453.41443 548.99232,470.61637 548.99232,479.60745 C 548.99232,486.62089 536.44778,486.76369 536.44778,479.60745 C 536.44778,471.04673 536.82572,450.17669 536.82572,450.17669 C 536.82572,428.95063 565.79734,417.47642 579.13663,439.21462 z "
               id="path3264" />
          </g>
        </g>
      </g>
      <path
         d="M 497.91802,175.02801 C 497.91802,174.12445 497.73051,173.42417 497.35554,172.9272 C 496.98507,172.43024 496.46326,172.18176 495.79009,172.18175 C 495.12144,172.18176 494.59962,172.43024 494.22465,172.9272 C 493.85418,173.42417 493.66895,174.12445 493.66895,175.02801 C 493.66895,175.92708 493.85418,176.62508 494.22465,177.12205 C 494.59962,177.61903 495.12144,177.86751 495.79009,177.86751 C 496.46326,177.86751 496.98507,177.61903 497.35554,177.12205 C 497.73051,176.62508 497.91802,175.92708 497.91802,175.02801 M 499.16496,177.96917 C 499.16495,179.26128 498.87805,180.22131 498.30431,180.84932 C 497.73051,181.48182 496.85179,181.79806 495.66811,181.79806 C 495.22988,181.79806 494.81648,181.76417 494.42795,181.69642 C 494.03941,181.63316 493.66216,181.53376 493.29623,181.39824 L 493.29623,180.18519 C 493.66216,180.38397 494.02359,180.5308 494.38051,180.62567 C 494.73742,180.72056 495.10112,180.76799 495.47159,180.76799 C 496.28932,180.76799 496.90149,180.55338 497.3081,180.1242 C 497.71471,179.6995 497.91802,179.05571 497.91802,178.19279 L 497.91802,177.57612 C 497.66049,178.02337 497.33069,178.3577 496.9286,178.57907 C 496.52652,178.80045 496.04535,178.91113 495.48514,178.91113 C 494.55445,178.91113 493.80447,178.55649 493.23523,177.84716 C 492.66597,177.13787 492.38135,176.19815 492.38135,175.02801 C 492.38135,173.85337 492.66597,172.9114 493.23523,172.20208 C 493.80447,171.49278 494.55445,171.13812 495.48514,171.13811 C 496.04535,171.13812 496.52652,171.24881 496.9286,171.47018 C 497.33069,171.69156 497.66049,172.02589 497.91802,172.47316 L 497.91802,171.32109 L 499.16496,171.32109 L 499.16496,177.96917 M 508.22558,174.80439 L 508.22558,175.41429 L 502.49238,175.41429 C 502.54658,176.2727 502.80411,176.92779 503.26493,177.37957 C 503.73027,177.82685 504.37634,178.05048 505.20312,178.05048 C 505.68199,178.05048 506.14508,177.99174 506.59236,177.87428 C 507.04414,177.75681 507.4914,177.58062 507.93417,177.34569 L 507.93417,178.52486 C 507.4869,178.71461 507.02834,178.85919 506.55849,178.95858 C 506.0886,179.05797 505.61197,179.10767 505.12856,179.10767 C 503.91777,179.10767 502.95771,178.75527 502.24841,178.05048 C 501.54362,177.34569 501.19122,176.39243 501.19122,175.19066 C 501.19122,173.94824 501.52555,172.96335 502.19421,172.23597 C 502.86736,171.50407 503.77319,171.13812 504.9117,171.13811 C 505.93273,171.13812 506.73919,171.46792 507.33103,172.12753 C 507.92739,172.78264 508.22556,173.67491 508.22558,174.80439 M 506.97863,174.43844 C 506.96959,173.75623 506.77759,173.21182 506.40261,172.80521 C 506.03213,172.39861 505.53968,172.19531 504.92526,172.19529 C 504.22951,172.19531 503.67155,172.39184 503.25139,172.78489 C 502.83574,173.17794 502.5963,173.73138 502.53304,174.44521 L 506.97863,174.43844 M 513.21332,172.19529 C 512.54467,172.19531 512.01608,172.45736 511.62754,172.9814 C 511.23901,173.50098 511.04473,174.21478 511.04474,175.12288 C 511.04473,176.03099 511.23675,176.74708 511.62077,177.27115 C 512.00931,177.7907 512.54016,178.05048 513.21332,178.05048 C 513.87745,178.05048 514.40378,177.78844 514.79233,177.26437 C 515.18086,176.74029 515.37513,176.02647 515.37515,175.12288 C 515.37513,174.22384 515.18086,173.51227 514.79233,172.9882 C 514.40378,172.4596 513.87745,172.19531 513.21332,172.19529 M 513.21332,171.13811 C 514.29761,171.13812 515.14923,171.49052 515.7682,172.19529 C 516.38713,172.9001 516.6966,173.87596 516.69662,175.12288 C 516.6966,176.36531 516.38713,177.34117 515.7682,178.05048 C 515.14923,178.75527 514.29761,179.10767 513.21332,179.10767 C 512.1245,179.10767 511.27063,178.75527 510.65169,178.05048 C 510.03725,177.34117 509.73003,176.36531 509.73003,175.12288 C 509.73003,173.87596 510.03725,172.9001 510.65169,172.19529 C 511.27063,171.49052 512.1245,171.13812 513.21332,171.13811 M 524.66617,172.7781 C 524.9779,172.21789 525.35062,171.80451 525.78434,171.53795 C 526.21806,171.2714 526.72858,171.13812 527.31591,171.13811 C 528.10653,171.13812 528.71644,171.41596 529.14565,171.97166 C 529.57485,172.52285 529.78943,173.30896 529.78945,174.33 L 529.78945,178.91113 L 528.53574,178.91113 L 528.53574,174.37066 C 528.53572,173.64329 528.40697,173.1034 528.14946,172.75101 C 527.89193,172.39861 527.49887,172.22241 526.9703,172.2224 C 526.32422,172.22241 525.81371,172.43701 525.43873,172.86621 C 525.06373,173.29541 524.87624,173.88047 524.87625,174.6214 L 524.87625,178.91113 L 523.62254,178.91113 L 523.62254,174.37066 C 523.62254,173.63877 523.49378,173.09889 523.23626,172.75101 C 522.97873,172.39861 522.58115,172.22241 522.04353,172.2224 C 521.4065,172.22241 520.90051,172.43927 520.52553,172.87298 C 520.15054,173.30219 519.96305,173.88499 519.96306,174.6214 L 519.96306,178.91113 L 518.70933,178.91113 L 518.70933,171.32109 L 519.96306,171.32109 L 519.96306,172.50026 C 520.24768,172.03493 520.58877,171.69156 520.98635,171.47018 C 521.38393,171.24881 521.85604,171.13812 522.40271,171.13811 C 522.95389,171.13812 523.42149,171.27817 523.80552,171.55828 C 524.19405,171.83838 524.48092,172.245 524.66617,172.7781 M 538.77554,174.80439 L 538.77554,175.41429 L 533.04233,175.41429 C 533.09655,176.2727 533.35407,176.92779 533.81489,177.37957 C 534.28023,177.82685 534.92628,178.05048 535.75306,178.05048 C 536.23195,178.05048 536.69504,177.99174 537.14231,177.87428 C 537.59409,177.75681 538.04136,177.58062 538.48412,177.34569 L 538.48412,178.52486 C 538.03685,178.71461 537.57828,178.85919 537.10843,178.95858 C 536.63856,179.05797 536.16193,179.10767 535.67851,179.10767 C 534.46772,179.10767 533.50767,178.75527 532.79836,178.05048 C 532.09357,177.34569 531.74117,176.39243 531.74117,175.19066 C 531.74117,173.94824 532.07551,172.96335 532.74416,172.23597 C 533.41732,171.50407 534.32314,171.13812 535.46165,171.13811 C 536.48269,171.13812 537.28914,171.46792 537.88099,172.12753 C 538.47733,172.78264 538.77552,173.67491 538.77554,174.80439 M 537.52859,174.43844 C 537.51955,173.75623 537.32754,173.21182 536.95255,172.80521 C 536.5821,172.39861 536.08964,172.19531 535.47521,172.19529 C 534.77945,172.19531 534.22149,172.39184 533.80133,172.78489 C 533.38569,173.17794 533.14624,173.73138 533.08299,174.44521 L 537.52859,174.43844 M 542.05552,169.16606 L 542.05552,171.32109 L 544.62394,171.32109 L 544.62394,172.29018 L 542.05552,172.29018 L 542.05552,176.4105 C 542.05552,177.02944 542.1391,177.42701 542.30626,177.60322 C 542.47794,177.77942 542.82357,177.86751 543.34312,177.86751 L 544.62394,177.86751 L 544.62394,178.91113 L 543.34312,178.91113 C 542.3808,178.91113 541.71667,178.73268 541.35073,178.37577 C 540.98478,178.01435 540.80181,177.35924 540.80181,176.4105 L 540.80181,172.29018 L 539.88693,172.29018 L 539.88693,171.32109 L 540.80181,171.32109 L 540.80181,169.16606 L 542.05552,169.16606 M 550.66886,172.48671 C 550.52881,172.40538 550.3752,172.34666 550.20805,172.3105 C 550.04539,172.26985 549.86469,172.24951 549.66589,172.24951 C 548.96111,172.24951 548.41895,172.47993 548.03947,172.94076 C 547.66447,173.39706 547.47698,174.05441 547.47698,174.91281 L 547.47698,178.91113 L 546.22327,178.91113 L 546.22327,171.32109 L 547.47698,171.32109 L 547.47698,172.50026 C 547.73903,172.03944 548.08011,171.69834 548.50027,171.47696 C 548.92044,171.25106 549.43096,171.13812 550.03184,171.13811 C 550.11767,171.13812 550.21255,171.14491 550.31648,171.15844 C 550.42038,171.16748 550.53559,171.1833 550.66209,171.20588 L 550.66886,172.48671 M 555.14836,179.61593 C 554.79596,180.5195 554.4526,181.10909 554.11828,181.38467 C 553.78396,181.66027 553.33668,181.79806 552.77647,181.79806 L 551.78027,181.79806 L 551.78027,180.75443 L 552.51216,180.75443 C 552.85553,180.75443 553.12209,180.67311 553.31185,180.51047 C 553.50159,180.34782 553.71167,179.9638 553.94209,179.3584 L 554.1657,178.78916 L 551.09582,171.32109 L 552.41729,171.32109 L 554.78918,177.25759 L 557.16108,171.32109 L 558.48256,171.32109 L 555.14836,179.61593 M 568.46483,168.36639 L 568.46483,169.40324 L 567.27209,169.40324 C 566.82482,169.40325 566.51309,169.49361 566.3369,169.6743 C 566.16522,169.85504 566.07938,170.18033 566.07938,170.65018 L 566.07938,171.32109 L 568.13276,171.32109 L 568.13276,172.29018 L 566.07938,172.29018 L 566.07938,178.91113 L 564.82567,178.91113 L 564.82567,172.29018 L 563.63294,172.29018 L 563.63294,171.32109 L 564.82567,171.32109 L 564.82567,170.79248 C 564.82567,169.94765 565.02219,169.33322 565.41524,168.94919 C 565.80831,168.56066 566.43177,168.36641 567.28566,168.36639 L 568.46483,168.36639 M 573.89985,172.48671 C 573.75979,172.40538 573.60619,172.34666 573.43902,172.3105 C 573.27639,172.26985 573.09566,172.24951 572.89688,172.24951 C 572.19209,172.24951 571.64994,172.47993 571.27044,172.94076 C 570.89545,173.39706 570.70796,174.05441 570.70796,174.91281 L 570.70796,178.91113 L 569.45425,178.91113 L 569.45425,171.32109 L 570.70796,171.32109 L 570.70796,172.50026 C 570.97,172.03944 571.3111,171.69834 571.73127,171.47696 C 572.15143,171.25106 572.66195,171.13812 573.26282,171.13811 C 573.34867,171.13812 573.44354,171.14491 573.54745,171.15844 C 573.65136,171.16748 573.76656,171.1833 573.89308,171.20588 L 573.89985,172.48671 M 578.67074,175.09578 C 577.66324,175.09578 576.96523,175.21099 576.5767,175.4414 C 576.18815,175.67182 575.99388,176.06487 575.99388,176.62057 C 575.99388,177.06333 576.13846,177.41572 576.4276,177.67775 C 576.72126,177.93528 577.11884,178.06404 577.62031,178.06404 C 578.31156,178.06404 578.86499,177.82006 579.28065,177.33213 C 579.70081,176.83969 579.91088,176.18685 579.91089,175.37363 L 579.91089,175.09578 L 578.67074,175.09578 M 581.15783,174.58074 L 581.15783,178.91113 L 579.91089,178.91113 L 579.91089,177.75908 C 579.62627,178.2199 579.27159,178.56099 578.84693,178.78238 C 578.42225,178.99923 577.90268,179.10767 577.28826,179.10767 C 576.51117,179.10767 575.89223,178.89081 575.43141,178.45709 C 574.9751,178.01884 574.74695,177.43379 574.74695,176.7019 C 574.74695,175.84801 575.03158,175.20421 575.60083,174.7705 C 576.1746,174.33679 577.02848,174.11992 578.16246,174.11992 L 579.91089,174.11992 L 579.91089,173.99794 C 579.91088,173.42417 579.72113,172.98142 579.34164,172.66967 C 578.96665,172.35343 578.43805,172.19531 577.75586,172.19529 C 577.32214,172.19531 576.89971,172.24726 576.48859,172.35116 C 576.07747,172.45509 575.68214,172.61095 575.30266,172.81877 L 575.30266,171.66671 C 575.75894,171.49052 576.20172,171.35949 576.6309,171.27365 C 577.0601,171.1833 577.478,171.13812 577.88462,171.13811 C 578.98246,171.13812 579.80245,171.42274 580.3446,171.99199 C 580.88675,172.56126 581.15782,173.42417 581.15783,174.58074 M 589.64243,172.7781 C 589.95415,172.21789 590.32689,171.80451 590.76061,171.53795 C 591.19431,171.2714 591.70483,171.13812 592.29217,171.13811 C 593.08278,171.13812 593.69269,171.41596 594.12191,171.97166 C 594.55109,172.52285 594.76569,173.30896 594.76571,174.33 L 594.76571,178.91113 L 593.51201,178.91113 L 593.51201,174.37066 C 593.51199,173.64329 593.38324,173.1034 593.12571,172.75101 C 592.8682,172.39861 592.47513,172.22241 591.94655,172.2224 C 591.30049,172.22241 590.78997,172.43701 590.41497,172.86621 C 590.03999,173.29541 589.85249,173.88047 589.85251,174.6214 L 589.85251,178.91113 L 588.5988,178.91113 L 588.5988,174.37066 C 588.59878,173.63877 588.47003,173.09889 588.21251,172.75101 C 587.95499,172.39861 587.55742,172.22241 587.01979,172.2224 C 586.38277,172.22241 585.87677,172.43927 585.50178,172.87298 C 585.1268,173.30219 584.9393,173.88499 584.9393,174.6214 L 584.9393,178.91113 L 583.6856,178.91113 L 583.6856,171.32109 L 584.9393,171.32109 L 584.9393,172.50026 C 585.22394,172.03493 585.56503,171.69156 585.96261,171.47018 C 586.36018,171.24881 586.8323,171.13812 587.37897,171.13811 C 587.93013,171.13812 588.39775,171.27817 588.78177,171.55828 C 589.17031,171.83838 589.45719,172.245 589.64243,172.7781 M 603.75178,174.80439 L 603.75178,175.41429 L 598.01859,175.41429 C 598.0728,176.2727 598.33032,176.92779 598.79114,177.37957 C 599.25649,177.82685 599.90253,178.05048 600.72931,178.05048 C 601.20822,178.05048 601.6713,177.99174 602.11856,177.87428 C 602.57034,177.75681 603.01762,177.58062 603.46038,177.34569 L 603.46038,178.52486 C 603.01311,178.71461 602.55453,178.85919 602.08467,178.95858 C 601.61482,179.05797 601.13818,179.10767 600.65477,179.10767 C 599.44397,179.10767 598.48393,178.75527 597.77462,178.05048 C 597.06984,177.34569 596.71743,176.39243 596.71743,175.19066 C 596.71743,173.94824 597.05176,172.96335 597.72041,172.23597 C 598.39357,171.50407 599.29942,171.13812 600.43792,171.13811 C 601.45895,171.13812 602.26539,171.46792 602.85725,172.12753 C 603.45361,172.78264 603.75178,173.67491 603.75178,174.80439 M 602.50485,174.43844 C 602.49581,173.75623 602.30379,173.21182 601.92881,172.80521 C 601.55835,172.39861 601.06589,172.19531 600.45147,172.19529 C 599.7557,172.19531 599.19775,172.39184 598.77758,172.78489 C 598.36195,173.17794 598.12248,173.73138 598.05925,174.44521 L 602.50485,174.43844 M 605.07326,171.32109 L 606.32019,171.32109 L 607.87888,177.24405 L 609.43076,171.32109 L 610.90133,171.32109 L 612.46,177.24405 L 614.01191,171.32109 L 615.25884,171.32109 L 613.27323,178.91113 L 611.80265,178.91113 L 610.16944,172.69001 L 608.52944,178.91113 L 607.05888,178.91113 L 605.07326,171.32109 M 620.0975,172.19529 C 619.42885,172.19531 618.90025,172.45736 618.51172,172.9814 C 618.12319,173.50098 617.92892,174.21478 617.92892,175.12288 C 617.92892,176.03099 618.12092,176.74708 618.50494,177.27115 C 618.89348,177.7907 619.42433,178.05048 620.0975,178.05048 C 620.76162,178.05048 621.28796,177.78844 621.67651,177.26437 C 622.06504,176.74029 622.2593,176.02647 622.25931,175.12288 C 622.2593,174.22384 622.06504,173.51227 621.67651,172.9882 C 621.28796,172.4596 620.76162,172.19531 620.0975,172.19529 M 620.0975,171.13811 C 621.18179,171.13812 622.03341,171.49052 622.65236,172.19529 C 623.27131,172.9001 623.58078,173.87596 623.58079,175.12288 C 623.58078,176.36531 623.27131,177.34117 622.65236,178.05048 C 622.03341,178.75527 621.18179,179.10767 620.0975,179.10767 C 619.00869,179.10767 618.1548,178.75527 617.53586,178.05048 C 616.92143,177.34117 616.61419,176.36531 616.61421,175.12288 C 616.61419,173.87596 616.92143,172.9001 617.53586,172.19529 C 618.1548,171.49052 619.00869,171.13812 620.0975,171.13811 M 630.03912,172.48671 C 629.89905,172.40538 629.74545,172.34666 629.57829,172.3105 C 629.41564,172.26985 629.23493,172.24951 629.03613,172.24951 C 628.33135,172.24951 627.7892,172.47993 627.4097,172.94076 C 627.03471,173.39706 626.84723,174.05441 626.84723,174.91281 L 626.84723,178.91113 L 625.59352,178.91113 L 625.59352,171.32109 L 626.84723,171.32109 L 626.84723,172.50026 C 627.10925,172.03944 627.45036,171.69834 627.87053,171.47696 C 628.29069,171.25106 628.80121,171.13812 629.40209,171.13811 C 629.48793,171.13812 629.58279,171.14491 629.68672,171.15844 C 629.79063,171.16748 629.90583,171.1833 630.03234,171.20588 L 630.03912,172.48671 M 631.31315,168.36639 L 632.56686,168.36639 L 632.56686,174.5943 L 636.28735,171.32109 L 637.87991,171.32109 L 633.85446,174.87214 L 638.04932,178.91113 L 636.42289,178.91113 L 632.56686,175.20421 L 632.56686,178.91113 L 631.31315,178.91113 L 631.31315,168.36639"
         id="path3268"
         style="fill:#4e9a06"
         sodipodi:nodetypes="csssssssccsssccsssccssssssscccccccsssccsssssssccssscccsssssssccsssssssccsssccccsssccccsssccccccsssccccsssccsssssssccsssccccccccsccccsccccccccsssccccccssscccsccccscccccccccccsccccccccccccscccsssccccccssscccssssscccccccssssscccsssccsssccsssccccsssccccsssccccccsssccccsssccsssssssccssscccccccccccccccccsssssssccsssssssccsssccccccssscccccccccccccc" />
    </g>
    <g
       id="g2025">
      <rect
         ry="36"
         rx="36"
         y="231"
         x="478.75"
         height="142"
         width="289"
         id="rect3246"
         style="fill:#2e3436;fill-opacity:1;stroke:none;stroke-width:21.75;stroke-linecap:round;stroke-linejoin:round;stroke-miterlimit:4;stroke-dasharray:none;stroke-dashoffset:0;stroke-opacity:1" />
      <g
         transform="translate(7.80071,0.111019)"
         id="g2009">
        <path
           style="font-size:81.82437897px;font-style:normal;font-weight:normal;fill:#eeeeec;fill-opacity:1;stroke:none;stroke-width:1px;stroke-linecap:butt;stroke-linejoin:miter;stroke-opacity:1;font-family:Bitstream Vera Sans"
           id="path1980"
           sodipodi:nodetypes="csssszssc"
           d="M 511.86812,316.94335 C 515.6859,317.1724 525.71304,316.45168 531.77672,316.45168 C 538.07184,316.45168 538.5981,324.93227 531.98862,324.93227 C 523.82742,324.93227 510.81522,324.93227 502.89221,324.93227 C 497.48257,324.93227 497.51653,316.52428 502.90472,313.22444 C 516.8326,304.69474 528.00526,300.75157 528.00526,290.62472 C 528.00526,280.33291 516.66277,277.98299 504.71466,286.25755 C 499.81649,289.64972 496.08285,282.51534 501.85738,278.52772 C 535.09235,255.57721 555.21202,301.65791 511.86812,316.94335 z " />
        <path
           d="M 571.11577,288.55879 C 560.01978,279.00842 539.2002,284.99649 539.2002,306.25711 C 539.2002,327.37794 565.61437,328.04293 571.11577,319.42541 C 571.11577,334.99438 559.55673,336.39105 547.80907,336.39105 C 541.86164,336.39105 541.83675,345.68147 547.80907,345.68147 C 574.28378,345.68147 580.13162,336.21752 580.13162,310.17089 L 580.13162,297.37056 C 580.13162,274.75637 584.93525,270.47613 589.1556,264.97323 C 593.19575,259.70529 586.08642,255.52675 581.63965,259.97351 C 576.54696,265.06621 571.11577,278.60831 571.11577,288.55879 z M 571.72882,304.42579 C 571.72882,319.99669 548.5936,322.45747 548.5936,305.50038 C 548.5936,288.5433 571.72882,288.57523 571.72882,304.42579 z "
           sodipodi:nodetypes="czcsssssscczz"
           id="path1982"
           style="fill:#eeeeec" />
        <path
           id="path1984"
           d="M 623.7534,301.47436 C 623.7534,304.86557 621.81785,308.44238 615.80699,308.44238 L 594.81328,308.44238 C 597.05105,320.13436 608.49558,319.68915 618.82059,314.11613 C 622.342,312.21542 626.13717,318.6785 620.91379,321.71367 C 616.58048,324.23165 611.71981,325.2915 607.03929,325.2915 C 594.89581,325.2915 586.30285,317.90866 586.30285,304.80539 C 586.30285,291.40992 596.16476,284.7676 605.76716,284.62063 C 614.87709,284.48116 623.7534,291.54922 623.7534,301.47436 z M 616.22592,301.56683 C 616.22592,296.20514 612.37554,292.07072 605.67066,292.07072 C 599.10652,292.07072 594.97218,295.59292 594.97218,301.83086 L 616.22592,301.56683 z M 637.43784,304.97985 C 637.43784,312.72395 641.1843,318.55961 647.69204,318.55961 C 654.69975,318.55961 657.94624,312.85122 657.94624,304.97985 C 657.94624,297.01536 654.5131,292.02505 647.69204,292.02505 C 640.87098,292.02505 637.43784,297.32886 637.43784,304.97985 z M 647.70275,284.65396 C 660.23887,284.65396 666.04642,293.78491 666.04642,304.97985 C 666.04642,316.17715 660.00534,325.30577 647.70275,325.30577 C 635.52486,325.30577 629.70003,315.83783 629.70003,304.97985 C 629.70003,294.11954 635.04607,284.65396 647.70275,284.65396 z M 702.58002,293.0646 C 713.17516,277.66008 731.6625,286.82257 731.6625,300.10845 C 731.6625,300.10845 731.6625,315.9267 731.6625,321.625 C 731.6625,326.57091 723.894,326.75735 723.894,321.625 C 723.894,315.97724 723.89405,303.10481 723.89405,303.10481 C 723.89405,289.86198 706.89046,289.55061 706.89046,303.10481 C 706.89046,303.10481 706.89046,316.29029 706.89046,321.625 C 706.89046,326.57954 698.26956,326.77004 698.26956,321.625 C 698.26956,315.8015 698.2696,303.10481 698.2696,303.10481 C 698.2696,288.68641 681.266,289.00165 681.266,303.10481 C 681.266,303.10481 681.266,315.26771 681.266,321.625 C 681.266,326.58397 672.39619,326.68494 672.39619,321.625 C 672.39619,315.57201 672.66341,300.81551 672.66341,300.81551 C 672.66341,285.80729 693.14826,277.69426 702.58002,293.0646 z "
           style="fill:#eeeeec" />
        <path
           d="M 591.91802,336.86721 C 591.91802,335.96365 591.73051,335.26337 591.35554,334.7664 C 590.98507,334.26944 590.46326,334.02096 589.79009,334.02095 C 589.12144,334.02096 588.59962,334.26944 588.22465,334.7664 C 587.85418,335.26337 587.66895,335.96365 587.66895,336.86721 C 587.66895,337.76628 587.85418,338.46428 588.22465,338.96125 C 588.59962,339.45823 589.12144,339.70671 589.79009,339.70671 C 590.46326,339.70671 590.98507,339.45823 591.35554,338.96125 C 591.73051,338.46428 591.91802,337.76628 591.91802,336.86721 M 593.16496,339.80837 C 593.16495,341.10048 592.87805,342.06051 592.30431,342.68852 C 591.73051,343.32102 590.85179,343.63726 589.66811,343.63726 C 589.22988,343.63726 588.81648,343.60337 588.42795,343.53562 C 588.03941,343.47236 587.66216,343.37296 587.29623,343.23744 L 587.29623,342.02439 C 587.66216,342.22317 588.02359,342.37 588.38051,342.46487 C 588.73742,342.55976 589.10112,342.60719 589.47159,342.60719 C 590.28932,342.60719 590.90149,342.39258 591.3081,341.9634 C 591.71471,341.5387 591.91802,340.89491 591.91802,340.03199 L 591.91802,339.41532 C 591.66049,339.86257 591.33069,340.1969 590.9286,340.41827 C 590.52652,340.63965 590.04535,340.75033 589.48514,340.75033 C 588.55445,340.75033 587.80447,340.39569 587.23523,339.68636 C 586.66597,338.97707 586.38135,338.03735 586.38135,336.86721 C 586.38135,335.69257 586.66597,334.7506 587.23523,334.04128 C 587.80447,333.33198 588.55445,332.97732 589.48514,332.97731 C 590.04535,332.97732 590.52652,333.08801 590.9286,333.30938 C 591.33069,333.53076 591.66049,333.86509 591.91802,334.31236 L 591.91802,333.16029 L 593.16496,333.16029 L 593.16496,339.80837 M 602.22558,336.64359 L 602.22558,337.25349 L 596.49238,337.25349 C 596.54658,338.1119 596.80411,338.76699 597.26493,339.21877 C 597.73027,339.66605 598.37634,339.88968 599.20312,339.88968 C 599.68199,339.88968 600.14508,339.83094 600.59236,339.71348 C 601.04414,339.59601 601.4914,339.41982 601.93417,339.18489 L 601.93417,340.36406 C 601.4869,340.55381 601.02834,340.69839 600.55849,340.79778 C 600.0886,340.89717 599.61197,340.94687 599.12856,340.94687 C 597.91777,340.94687 596.95771,340.59447 596.24841,339.88968 C 595.54362,339.18489 595.19122,338.23163 595.19122,337.02986 C 595.19122,335.78744 595.52555,334.80255 596.19421,334.07517 C 596.86736,333.34327 597.77319,332.97732 598.9117,332.97731 C 599.93273,332.97732 600.73919,333.30712 601.33103,333.96673 C 601.92739,334.62184 602.22556,335.51411 602.22558,336.64359 M 600.97863,336.27764 C 600.96959,335.59543 600.77759,335.05102 600.40261,334.64441 C 600.03213,334.23781 599.53968,334.03451 598.92526,334.03449 C 598.22951,334.03451 597.67155,334.23104 597.25139,334.62409 C 596.83574,335.01714 596.5963,335.57058 596.53304,336.28441 L 600.97863,336.27764 M 607.21332,334.03449 C 606.54467,334.03451 606.01608,334.29656 605.62754,334.8206 C 605.23901,335.34018 605.04473,336.05398 605.04474,336.96208 C 605.04473,337.87019 605.23675,338.58628 605.62077,339.11035 C 606.00931,339.6299 606.54016,339.88968 607.21332,339.88968 C 607.87745,339.88968 608.40378,339.62764 608.79233,339.10357 C 609.18086,338.57949 609.37513,337.86567 609.37515,336.96208 C 609.37513,336.06304 609.18086,335.35147 608.79233,334.8274 C 608.40378,334.2988 607.87745,334.03451 607.21332,334.03449 M 607.21332,332.97731 C 608.29761,332.97732 609.14923,333.32972 609.7682,334.03449 C 610.38713,334.7393 610.6966,335.71516 610.69662,336.96208 C 610.6966,338.20451 610.38713,339.18037 609.7682,339.88968 C 609.14923,340.59447 608.29761,340.94687 607.21332,340.94687 C 606.1245,340.94687 605.27063,340.59447 604.65169,339.88968 C 604.03725,339.18037 603.73003,338.20451 603.73003,336.96208 C 603.73003,335.71516 604.03725,334.7393 604.65169,334.03449 C 605.27063,333.32972 606.1245,332.97732 607.21332,332.97731 M 618.66617,334.6173 C 618.9779,334.05709 619.35062,333.64371 619.78434,333.37715 C 620.21806,333.1106 620.72858,332.97732 621.31591,332.97731 C 622.10653,332.97732 622.71644,333.25516 623.14565,333.81086 C 623.57485,334.36205 623.78943,335.14816 623.78945,336.1692 L 623.78945,340.75033 L 622.53574,340.75033 L 622.53574,336.20986 C 622.53572,335.48249 622.40697,334.9426 622.14946,334.59021 C 621.89193,334.23781 621.49887,334.06161 620.9703,334.0616 C 620.32422,334.06161 619.81371,334.27621 619.43873,334.70541 C 619.06373,335.13461 618.87624,335.71967 618.87625,336.4606 L 618.87625,340.75033 L 617.62254,340.75033 L 617.62254,336.20986 C 617.62254,335.47797 617.49378,334.93809 617.23626,334.59021 C 616.97873,334.23781 616.58115,334.06161 616.04353,334.0616 C 615.4065,334.06161 614.90051,334.27847 614.52553,334.71218 C 614.15054,335.14139 613.96305,335.72419 613.96306,336.4606 L 613.96306,340.75033 L 612.70933,340.75033 L 612.70933,333.16029 L 613.96306,333.16029 L 613.96306,334.33946 C 614.24768,333.87413 614.58877,333.53076 614.98635,333.30938 C 615.38393,333.08801 615.85604,332.97732 616.40271,332.97731 C 616.95389,332.97732 617.42149,333.11737 617.80552,333.39748 C 618.19405,333.67758 618.48092,334.0842 618.66617,334.6173 M 632.77554,336.64359 L 632.77554,337.25349 L 627.04233,337.25349 C 627.09655,338.1119 627.35407,338.76699 627.81489,339.21877 C 628.28023,339.66605 628.92628,339.88968 629.75306,339.88968 C 630.23195,339.88968 630.69504,339.83094 631.14231,339.71348 C 631.59409,339.59601 632.04136,339.41982 632.48412,339.18489 L 632.48412,340.36406 C 632.03685,340.55381 631.57828,340.69839 631.10843,340.79778 C 630.63856,340.89717 630.16193,340.94687 629.67851,340.94687 C 628.46772,340.94687 627.50767,340.59447 626.79836,339.88968 C 626.09357,339.18489 625.74117,338.23163 625.74117,337.02986 C 625.74117,335.78744 626.07551,334.80255 626.74416,334.07517 C 627.41732,333.34327 628.32314,332.97732 629.46165,332.97731 C 630.48269,332.97732 631.28914,333.30712 631.88099,333.96673 C 632.47733,334.62184 632.77552,335.51411 632.77554,336.64359 M 631.52859,336.27764 C 631.51955,335.59543 631.32754,335.05102 630.95255,334.64441 C 630.5821,334.23781 630.08964,334.03451 629.47521,334.03449 C 628.77945,334.03451 628.22149,334.23104 627.80133,334.62409 C 627.38569,335.01714 627.14624,335.57058 627.08299,336.28441 L 631.52859,336.27764 M 636.05552,331.00526 L 636.05552,333.16029 L 638.62394,333.16029 L 638.62394,334.12938 L 636.05552,334.12938 L 636.05552,338.2497 C 636.05552,338.86864 636.1391,339.26621 636.30626,339.44242 C 636.47794,339.61862 636.82357,339.70671 637.34312,339.70671 L 638.62394,339.70671 L 638.62394,340.75033 L 637.34312,340.75033 C 636.3808,340.75033 635.71667,340.57188 635.35073,340.21497 C 634.98478,339.85355 634.80181,339.19844 634.80181,338.2497 L 634.80181,334.12938 L 633.88693,334.12938 L 633.88693,333.16029 L 634.80181,333.16029 L 634.80181,331.00526 L 636.05552,331.00526 M 644.66886,334.32591 C 644.52881,334.24458 644.3752,334.18586 644.20805,334.1497 C 644.04539,334.10905 643.86469,334.08871 643.66589,334.08871 C 642.96111,334.08871 642.41895,334.31913 642.03947,334.77996 C 641.66447,335.23626 641.47698,335.89361 641.47698,336.75201 L 641.47698,340.75033 L 640.22327,340.75033 L 640.22327,333.16029 L 641.47698,333.16029 L 641.47698,334.33946 C 641.73903,333.87864 642.08011,333.53754 642.50027,333.31616 C 642.92044,333.09026 643.43096,332.97732 644.03184,332.97731 C 644.11767,332.97732 644.21255,332.98411 644.31648,332.99764 C 644.42038,333.00668 644.53559,333.0225 644.66209,333.04508 L 644.66886,334.32591 M 649.14836,341.45513 C 648.79596,342.3587 648.4526,342.94829 648.11828,343.22387 C 647.78396,343.49947 647.33668,343.63726 646.77647,343.63726 L 645.78027,343.63726 L 645.78027,342.59363 L 646.51216,342.59363 C 646.85553,342.59363 647.12209,342.51231 647.31185,342.34967 C 647.50159,342.18702 647.71167,341.803 647.94209,341.1976 L 648.1657,340.62836 L 645.09582,333.16029 L 646.41729,333.16029 L 648.78918,339.09679 L 651.16108,333.16029 L 652.48256,333.16029 L 649.14836,341.45513 M 662.46483,330.20559 L 662.46483,331.24244 L 661.27209,331.24244 C 660.82482,331.24245 660.51309,331.33281 660.3369,331.5135 C 660.16522,331.69424 660.07938,332.01953 660.07938,332.48938 L 660.07938,333.16029 L 662.13276,333.16029 L 662.13276,334.12938 L 660.07938,334.12938 L 660.07938,340.75033 L 658.82567,340.75033 L 658.82567,334.12938 L 657.63294,334.12938 L 657.63294,333.16029 L 658.82567,333.16029 L 658.82567,332.63168 C 658.82567,331.78685 659.02219,331.17242 659.41524,330.78839 C 659.80831,330.39986 660.43177,330.20561 661.28566,330.20559 L 662.46483,330.20559 M 667.89985,334.32591 C 667.75979,334.24458 667.60619,334.18586 667.43902,334.1497 C 667.27639,334.10905 667.09566,334.08871 666.89688,334.08871 C 666.19209,334.08871 665.64994,334.31913 665.27044,334.77996 C 664.89545,335.23626 664.70796,335.89361 664.70796,336.75201 L 664.70796,340.75033 L 663.45425,340.75033 L 663.45425,333.16029 L 664.70796,333.16029 L 664.70796,334.33946 C 664.97,333.87864 665.3111,333.53754 665.73127,333.31616 C 666.15143,333.09026 666.66195,332.97732 667.26282,332.97731 C 667.34867,332.97732 667.44354,332.98411 667.54745,332.99764 C 667.65136,333.00668 667.76656,333.0225 667.89308,333.04508 L 667.89985,334.32591 M 672.67074,336.93498 C 671.66324,336.93498 670.96523,337.05019 670.5767,337.2806 C 670.18815,337.51102 669.99388,337.90407 669.99388,338.45977 C 669.99388,338.90253 670.13846,339.25492 670.4276,339.51695 C 670.72126,339.77448 671.11884,339.90324 671.62031,339.90324 C 672.31156,339.90324 672.86499,339.65926 673.28065,339.17133 C 673.70081,338.67889 673.91088,338.02605 673.91089,337.21283 L 673.91089,336.93498 L 672.67074,336.93498 M 675.15783,336.41994 L 675.15783,340.75033 L 673.91089,340.75033 L 673.91089,339.59828 C 673.62627,340.0591 673.27159,340.40019 672.84693,340.62158 C 672.42225,340.83843 671.90268,340.94687 671.28826,340.94687 C 670.51117,340.94687 669.89223,340.73001 669.43141,340.29629 C 668.9751,339.85804 668.74695,339.27299 668.74695,338.5411 C 668.74695,337.68721 669.03158,337.04341 669.60083,336.6097 C 670.1746,336.17599 671.02848,335.95912 672.16246,335.95912 L 673.91089,335.95912 L 673.91089,335.83714 C 673.91088,335.26337 673.72113,334.82062 673.34164,334.50887 C 672.96665,334.19263 672.43805,334.03451 671.75586,334.03449 C 671.32214,334.03451 670.89971,334.08646 670.48859,334.19036 C 670.07747,334.29429 669.68214,334.45015 669.30266,334.65797 L 669.30266,333.50591 C 669.75894,333.32972 670.20172,333.19869 670.6309,333.11285 C 671.0601,333.0225 671.478,332.97732 671.88462,332.97731 C 672.98246,332.97732 673.80245,333.26194 674.3446,333.83119 C 674.88675,334.40046 675.15782,335.26337 675.15783,336.41994 M 683.64243,334.6173 C 683.95415,334.05709 684.32689,333.64371 684.76061,333.37715 C 685.19431,333.1106 685.70483,332.97732 686.29217,332.97731 C 687.08278,332.97732 687.69269,333.25516 688.12191,333.81086 C 688.55109,334.36205 688.76569,335.14816 688.76571,336.1692 L 688.76571,340.75033 L 687.51201,340.75033 L 687.51201,336.20986 C 687.51199,335.48249 687.38324,334.9426 687.12571,334.59021 C 686.8682,334.23781 686.47513,334.06161 685.94655,334.0616 C 685.30049,334.06161 684.78997,334.27621 684.41497,334.70541 C 684.03999,335.13461 683.85249,335.71967 683.85251,336.4606 L 683.85251,340.75033 L 682.5988,340.75033 L 682.5988,336.20986 C 682.59878,335.47797 682.47003,334.93809 682.21251,334.59021 C 681.95499,334.23781 681.55742,334.06161 681.01979,334.0616 C 680.38277,334.06161 679.87677,334.27847 679.50178,334.71218 C 679.1268,335.14139 678.9393,335.72419 678.9393,336.4606 L 678.9393,340.75033 L 677.6856,340.75033 L 677.6856,333.16029 L 678.9393,333.16029 L 678.9393,334.33946 C 679.22394,333.87413 679.56503,333.53076 679.96261,333.30938 C 680.36018,333.08801 680.8323,332.97732 681.37897,332.97731 C 681.93013,332.97732 682.39775,333.11737 682.78177,333.39748 C 683.17031,333.67758 683.45719,334.0842 683.64243,334.6173 M 697.75178,336.64359 L 697.75178,337.25349 L 692.01859,337.25349 C 692.0728,338.1119 692.33032,338.76699 692.79114,339.21877 C 693.25649,339.66605 693.90253,339.88968 694.72931,339.88968 C 695.20822,339.88968 695.6713,339.83094 696.11856,339.71348 C 696.57034,339.59601 697.01762,339.41982 697.46038,339.18489 L 697.46038,340.36406 C 697.01311,340.55381 696.55453,340.69839 696.08467,340.79778 C 695.61482,340.89717 695.13818,340.94687 694.65477,340.94687 C 693.44397,340.94687 692.48393,340.59447 691.77462,339.88968 C 691.06984,339.18489 690.71743,338.23163 690.71743,337.02986 C 690.71743,335.78744 691.05176,334.80255 691.72041,334.07517 C 692.39357,333.34327 693.29942,332.97732 694.43792,332.97731 C 695.45895,332.97732 696.26539,333.30712 696.85725,333.96673 C 697.45361,334.62184 697.75178,335.51411 697.75178,336.64359 M 696.50485,336.27764 C 696.49581,335.59543 696.30379,335.05102 695.92881,334.64441 C 695.55835,334.23781 695.06589,334.03451 694.45147,334.03449 C 693.7557,334.03451 693.19775,334.23104 692.77758,334.62409 C 692.36195,335.01714 692.12248,335.57058 692.05925,336.28441 L 696.50485,336.27764 M 699.07326,333.16029 L 700.32019,333.16029 L 701.87888,339.08325 L 703.43076,333.16029 L 704.90133,333.16029 L 706.46,339.08325 L 708.01191,333.16029 L 709.25884,333.16029 L 707.27323,340.75033 L 705.80265,340.75033 L 704.16944,334.52921 L 702.52944,340.75033 L 701.05888,340.75033 L 699.07326,333.16029 M 714.0975,334.03449 C 713.42885,334.03451 712.90025,334.29656 712.51172,334.8206 C 712.12319,335.34018 711.92892,336.05398 711.92892,336.96208 C 711.92892,337.87019 712.12092,338.58628 712.50494,339.11035 C 712.89348,339.6299 713.42433,339.88968 714.0975,339.88968 C 714.76162,339.88968 715.28796,339.62764 715.67651,339.10357 C 716.06504,338.57949 716.2593,337.86567 716.25931,336.96208 C 716.2593,336.06304 716.06504,335.35147 715.67651,334.8274 C 715.28796,334.2988 714.76162,334.03451 714.0975,334.03449 M 714.0975,332.97731 C 715.18179,332.97732 716.03341,333.32972 716.65236,334.03449 C 717.27131,334.7393 717.58078,335.71516 717.58079,336.96208 C 717.58078,338.20451 717.27131,339.18037 716.65236,339.88968 C 716.03341,340.59447 715.18179,340.94687 714.0975,340.94687 C 713.00869,340.94687 712.1548,340.59447 711.53586,339.88968 C 710.92143,339.18037 710.61419,338.20451 710.61421,336.96208 C 710.61419,335.71516 710.92143,334.7393 711.53586,334.03449 C 712.1548,333.32972 713.00869,332.97732 714.0975,332.97731 M 724.03912,334.32591 C 723.89905,334.24458 723.74545,334.18586 723.57829,334.1497 C 723.41564,334.10905 723.23493,334.08871 723.03613,334.08871 C 722.33135,334.08871 721.7892,334.31913 721.4097,334.77996 C 721.03471,335.23626 720.84723,335.89361 720.84723,336.75201 L 720.84723,340.75033 L 719.59352,340.75033 L 719.59352,333.16029 L 720.84723,333.16029 L 720.84723,334.33946 C 721.10925,333.87864 721.45036,333.53754 721.87053,333.31616 C 722.29069,333.09026 722.80121,332.97732 723.40209,332.97731 C 723.48793,332.97732 723.58279,332.98411 723.68672,332.99764 C 723.79063,333.00668 723.90583,333.0225 724.03234,333.04508 L 724.03912,334.32591 M 725.31315,330.20559 L 726.56686,330.20559 L 726.56686,336.4335 L 730.28735,333.16029 L 731.87991,333.16029 L 727.85446,336.71134 L 732.04932,340.75033 L 730.42289,340.75033 L 726.56686,337.04341 L 726.56686,340.75033 L 725.31315,340.75033 L 725.31315,330.20559"
           id="path1986"
           style="fill:#eeeeec"
           sodipodi:nodetypes="csssssssccsssccsssccssssssscccccccsssccsssssssccssscccsssssssccsssssssccsssccccsssccccsssccccccsssccccsssccsssssssccsssccccccccsccccsccccccccsssccccccssscccsccccscccccccccccsccccccccccccscccsssccccccssscccssssscccccccssssscccsssccsssccsssccccsssccccsssccccccsssccccsssccsssssssccssscccccccccccccccccsssssssccsssssssccsssccccccssscccccccccccccc" />
      </g>
    </g>
    <g
       id="g2033">
      <rect
         ry="36"
         rx="36"
         y="390"
         x="478.75"
         height="142"
         width="289"
         id="rect1934"
         style="fill:white;fill-opacity:1;stroke:none;stroke-width:21.75;stroke-linecap:round;stroke-linejoin:round;stroke-miterlimit:4;stroke-dasharray:none;stroke-dashoffset:0;stroke-opacity:1" />
      <g
         style="fill:#2e3436"
         id="g2015"
         transform="translate(7.80071,159.111)">
        <path
           d="M 511.86812,316.94335 C 515.6859,317.1724 525.71304,316.45168 531.77672,316.45168 C 538.07184,316.45168 538.5981,324.93227 531.98862,324.93227 C 523.82742,324.93227 510.81522,324.93227 502.89221,324.93227 C 497.48257,324.93227 497.51653,316.52428 502.90472,313.22444 C 516.8326,304.69474 528.00526,300.75157 528.00526,290.62472 C 528.00526,280.33291 516.66277,277.98299 504.71466,286.25755 C 499.81649,289.64972 496.08285,282.51534 501.85738,278.52772 C 535.09235,255.57721 555.21202,301.65791 511.86812,316.94335 z "
           sodipodi:nodetypes="csssszssc"
           id="path2017"
           style="font-size:81.82437897px;font-style:normal;font-weight:normal;fill:#2e3436;fill-opacity:1;stroke:none;stroke-width:1px;stroke-linecap:butt;stroke-linejoin:miter;stroke-opacity:1;font-family:Bitstream Vera Sans" />
        <path
           style="fill:#2e3436"
           id="path2019"
           sodipodi:nodetypes="czcsssssscczz"
           d="M 571.11577,288.55879 C 560.01978,279.00842 539.2002,284.99649 539.2002,306.25711 C 539.2002,327.37794 565.61437,328.04293 571.11577,319.42541 C 571.11577,334.99438 559.55673,336.39105 547.80907,336.39105 C 541.86164,336.39105 541.83675,345.68147 547.80907,345.68147 C 574.28378,345.68147 580.13162,336.21752 580.13162,310.17089 L 580.13162,297.37056 C 580.13162,274.75637 584.93525,270.47613 589.1556,264.97323 C 593.19575,259.70529 586.08642,255.52675 581.63965,259.97351 C 576.54696,265.06621 571.11577,278.60831 571.11577,288.55879 z M 571.72882,304.42579 C 571.72882,319.99669 548.5936,322.45747 548.5936,305.50038 C 548.5936,288.5433 571.72882,288.57523 571.72882,304.42579 z " />
        <path
           style="fill:#2e3436"
           d="M 623.7534,301.47436 C 623.7534,304.86557 621.81785,308.44238 615.80699,308.44238 L 594.81328,308.44238 C 597.05105,320.13436 608.49558,319.68915 618.82059,314.11613 C 622.342,312.21542 626.13717,318.6785 620.91379,321.71367 C 616.58048,324.23165 611.71981,325.2915 607.03929,325.2915 C 594.89581,325.2915 586.30285,317.90866 586.30285,304.80539 C 586.30285,291.40992 596.16476,284.7676 605.76716,284.62063 C 614.87709,284.48116 623.7534,291.54922 623.7534,301.47436 z M 616.22592,301.56683 C 616.22592,296.20514 612.37554,292.07072 605.67066,292.07072 C 599.10652,292.07072 594.97218,295.59292 594.97218,301.83086 L 616.22592,301.56683 z M 637.43784,304.97985 C 637.43784,312.72395 641.1843,318.55961 647.69204,318.55961 C 654.69975,318.55961 657.94624,312.85122 657.94624,304.97985 C 657.94624,297.01536 654.5131,292.02505 647.69204,292.02505 C 640.87098,292.02505 637.43784,297.32886 637.43784,304.97985 z M 647.70275,284.65396 C 660.23887,284.65396 666.04642,293.78491 666.04642,304.97985 C 666.04642,316.17715 660.00534,325.30577 647.70275,325.30577 C 635.52486,325.30577 629.70003,315.83783 629.70003,304.97985 C 629.70003,294.11954 635.04607,284.65396 647.70275,284.65396 z M 702.58002,293.0646 C 713.17516,277.66008 731.6625,286.82257 731.6625,300.10845 C 731.6625,300.10845 731.6625,315.9267 731.6625,321.625 C 731.6625,326.57091 723.894,326.75735 723.894,321.625 C 723.894,315.97724 723.89405,303.10481 723.89405,303.10481 C 723.89405,289.86198 706.89046,289.55061 706.89046,303.10481 C 706.89046,303.10481 706.89046,316.29029 706.89046,321.625 C 706.89046,326.57954 698.26956,326.77004 698.26956,321.625 C 698.26956,315.8015 698.2696,303.10481 698.2696,303.10481 C 698.2696,288.68641 681.266,289.00165 681.266,303.10481 C 681.266,303.10481 681.266,315.26771 681.266,321.625 C 681.266,326.58397 672.39619,326.68494 672.39619,321.625 C 672.39619,315.57201 672.66341,300.81551 672.66341,300.81551 C 672.66341,285.80729 693.14826,277.69426 702.58002,293.0646 z "
           id="path2021" />
        <path
           sodipodi:nodetypes="csssssssccsssccsssccssssssscccccccsssccsssssssccssscccsssssssccsssssssccsssccccsssccccsssccccccsssccccsssccsssssssccsssccccccccsccccsccccccccsssccccccssscccsccccscccccccccccsccccccccccccscccsssccccccssscccssssscccccccssssscccsssccsssccsssccccsssccccsssccccccsssccccsssccsssssssccssscccccccccccccccccsssssssccsssssssccsssccccccssscccccccccccccc"
           style="fill:#2e3436"
           id="path2023"
           d="M 591.91802,334.36721 C 591.91802,333.46365 591.73051,332.76337 591.35554,332.2664 C 590.98507,331.76944 590.46326,331.52096 589.79009,331.52095 C 589.12144,331.52096 588.59962,331.76944 588.22465,332.2664 C 587.85418,332.76337 587.66895,333.46365 587.66895,334.36721 C 587.66895,335.26628 587.85418,335.96428 588.22465,336.46125 C 588.59962,336.95823 589.12144,337.20671 589.79009,337.20671 C 590.46326,337.20671 590.98507,336.95823 591.35554,336.46125 C 591.73051,335.96428 591.91802,335.26628 591.91802,334.36721 M 593.16496,337.30837 C 593.16495,338.60048 592.87805,339.56051 592.30431,340.18852 C 591.73051,340.82102 590.85179,341.13726 589.66811,341.13726 C 589.22988,341.13726 588.81648,341.10337 588.42795,341.03562 C 588.03941,340.97236 587.66216,340.87296 587.29623,340.73744 L 587.29623,339.52439 C 587.66216,339.72317 588.02359,339.87 588.38051,339.96487 C 588.73742,340.05976 589.10112,340.10719 589.47159,340.10719 C 590.28932,340.10719 590.90149,339.89258 591.3081,339.4634 C 591.71471,339.0387 591.91802,338.39491 591.91802,337.53199 L 591.91802,336.91532 C 591.66049,337.36257 591.33069,337.6969 590.9286,337.91827 C 590.52652,338.13965 590.04535,338.25033 589.48514,338.25033 C 588.55445,338.25033 587.80447,337.89569 587.23523,337.18636 C 586.66597,336.47707 586.38135,335.53735 586.38135,334.36721 C 586.38135,333.19257 586.66597,332.2506 587.23523,331.54128 C 587.80447,330.83198 588.55445,330.47732 589.48514,330.47731 C 590.04535,330.47732 590.52652,330.58801 590.9286,330.80938 C 591.33069,331.03076 591.66049,331.36509 591.91802,331.81236 L 591.91802,330.66029 L 593.16496,330.66029 L 593.16496,337.30837 M 602.22558,334.14359 L 602.22558,334.75349 L 596.49238,334.75349 C 596.54658,335.6119 596.80411,336.26699 597.26493,336.71877 C 597.73027,337.16605 598.37634,337.38968 599.20312,337.38968 C 599.68199,337.38968 600.14508,337.33094 600.59236,337.21348 C 601.04414,337.09601 601.4914,336.91982 601.93417,336.68489 L 601.93417,337.86406 C 601.4869,338.05381 601.02834,338.19839 600.55849,338.29778 C 600.0886,338.39717 599.61197,338.44687 599.12856,338.44687 C 597.91777,338.44687 596.95771,338.09447 596.24841,337.38968 C 595.54362,336.68489 595.19122,335.73163 595.19122,334.52986 C 595.19122,333.28744 595.52555,332.30255 596.19421,331.57517 C 596.86736,330.84327 597.77319,330.47732 598.9117,330.47731 C 599.93273,330.47732 600.73919,330.80712 601.33103,331.46673 C 601.92739,332.12184 602.22556,333.01411 602.22558,334.14359 M 600.97863,333.77764 C 600.96959,333.09543 600.77759,332.55102 600.40261,332.14441 C 600.03213,331.73781 599.53968,331.53451 598.92526,331.53449 C 598.22951,331.53451 597.67155,331.73104 597.25139,332.12409 C 596.83574,332.51714 596.5963,333.07058 596.53304,333.78441 L 600.97863,333.77764 M 607.21332,331.53449 C 606.54467,331.53451 606.01608,331.79656 605.62754,332.3206 C 605.23901,332.84018 605.04473,333.55398 605.04474,334.46208 C 605.04473,335.37019 605.23675,336.08628 605.62077,336.61035 C 606.00931,337.1299 606.54016,337.38968 607.21332,337.38968 C 607.87745,337.38968 608.40378,337.12764 608.79233,336.60357 C 609.18086,336.07949 609.37513,335.36567 609.37515,334.46208 C 609.37513,333.56304 609.18086,332.85147 608.79233,332.3274 C 608.40378,331.7988 607.87745,331.53451 607.21332,331.53449 M 607.21332,330.47731 C 608.29761,330.47732 609.14923,330.82972 609.7682,331.53449 C 610.38713,332.2393 610.6966,333.21516 610.69662,334.46208 C 610.6966,335.70451 610.38713,336.68037 609.7682,337.38968 C 609.14923,338.09447 608.29761,338.44687 607.21332,338.44687 C 606.1245,338.44687 605.27063,338.09447 604.65169,337.38968 C 604.03725,336.68037 603.73003,335.70451 603.73003,334.46208 C 603.73003,333.21516 604.03725,332.2393 604.65169,331.53449 C 605.27063,330.82972 606.1245,330.47732 607.21332,330.47731 M 618.66617,332.1173 C 618.9779,331.55709 619.35062,331.14371 619.78434,330.87715 C 620.21806,330.6106 620.72858,330.47732 621.31591,330.47731 C 622.10653,330.47732 622.71644,330.75516 623.14565,331.31086 C 623.57485,331.86205 623.78943,332.64816 623.78945,333.6692 L 623.78945,338.25033 L 622.53574,338.25033 L 622.53574,333.70986 C 622.53572,332.98249 622.40697,332.4426 622.14946,332.09021 C 621.89193,331.73781 621.49887,331.56161 620.9703,331.5616 C 620.32422,331.56161 619.81371,331.77621 619.43873,332.20541 C 619.06373,332.63461 618.87624,333.21967 618.87625,333.9606 L 618.87625,338.25033 L 617.62254,338.25033 L 617.62254,333.70986 C 617.62254,332.97797 617.49378,332.43809 617.23626,332.09021 C 616.97873,331.73781 616.58115,331.56161 616.04353,331.5616 C 615.4065,331.56161 614.90051,331.77847 614.52553,332.21218 C 614.15054,332.64139 613.96305,333.22419 613.96306,333.9606 L 613.96306,338.25033 L 612.70933,338.25033 L 612.70933,330.66029 L 613.96306,330.66029 L 613.96306,331.83946 C 614.24768,331.37413 614.58877,331.03076 614.98635,330.80938 C 615.38393,330.58801 615.85604,330.47732 616.40271,330.47731 C 616.95389,330.47732 617.42149,330.61737 617.80552,330.89748 C 618.19405,331.17758 618.48092,331.5842 618.66617,332.1173 M 632.77554,334.14359 L 632.77554,334.75349 L 627.04233,334.75349 C 627.09655,335.6119 627.35407,336.26699 627.81489,336.71877 C 628.28023,337.16605 628.92628,337.38968 629.75306,337.38968 C 630.23195,337.38968 630.69504,337.33094 631.14231,337.21348 C 631.59409,337.09601 632.04136,336.91982 632.48412,336.68489 L 632.48412,337.86406 C 632.03685,338.05381 631.57828,338.19839 631.10843,338.29778 C 630.63856,338.39717 630.16193,338.44687 629.67851,338.44687 C 628.46772,338.44687 627.50767,338.09447 626.79836,337.38968 C 626.09357,336.68489 625.74117,335.73163 625.74117,334.52986 C 625.74117,333.28744 626.07551,332.30255 626.74416,331.57517 C 627.41732,330.84327 628.32314,330.47732 629.46165,330.47731 C 630.48269,330.47732 631.28914,330.80712 631.88099,331.46673 C 632.47733,332.12184 632.77552,333.01411 632.77554,334.14359 M 631.52859,333.77764 C 631.51955,333.09543 631.32754,332.55102 630.95255,332.14441 C 630.5821,331.73781 630.08964,331.53451 629.47521,331.53449 C 628.77945,331.53451 628.22149,331.73104 627.80133,332.12409 C 627.38569,332.51714 627.14624,333.07058 627.08299,333.78441 L 631.52859,333.77764 M 636.05552,328.50526 L 636.05552,330.66029 L 638.62394,330.66029 L 638.62394,331.62938 L 636.05552,331.62938 L 636.05552,335.7497 C 636.05552,336.36864 636.1391,336.76621 636.30626,336.94242 C 636.47794,337.11862 636.82357,337.20671 637.34312,337.20671 L 638.62394,337.20671 L 638.62394,338.25033 L 637.34312,338.25033 C 636.3808,338.25033 635.71667,338.07188 635.35073,337.71497 C 634.98478,337.35355 634.80181,336.69844 634.80181,335.7497 L 634.80181,331.62938 L 633.88693,331.62938 L 633.88693,330.66029 L 634.80181,330.66029 L 634.80181,328.50526 L 636.05552,328.50526 M 644.66886,331.82591 C 644.52881,331.74458 644.3752,331.68586 644.20805,331.6497 C 644.04539,331.60905 643.86469,331.58871 643.66589,331.58871 C 642.96111,331.58871 642.41895,331.81913 642.03947,332.27996 C 641.66447,332.73626 641.47698,333.39361 641.47698,334.25201 L 641.47698,338.25033 L 640.22327,338.25033 L 640.22327,330.66029 L 641.47698,330.66029 L 641.47698,331.83946 C 641.73903,331.37864 642.08011,331.03754 642.50027,330.81616 C 642.92044,330.59026 643.43096,330.47732 644.03184,330.47731 C 644.11767,330.47732 644.21255,330.48411 644.31648,330.49764 C 644.42038,330.50668 644.53559,330.5225 644.66209,330.54508 L 644.66886,331.82591 M 649.14836,338.95513 C 648.79596,339.8587 648.4526,340.44829 648.11828,340.72387 C 647.78396,340.99947 647.33668,341.13726 646.77647,341.13726 L 645.78027,341.13726 L 645.78027,340.09363 L 646.51216,340.09363 C 646.85553,340.09363 647.12209,340.01231 647.31185,339.84967 C 647.50159,339.68702 647.71167,339.303 647.94209,338.6976 L 648.1657,338.12836 L 645.09582,330.66029 L 646.41729,330.66029 L 648.78918,336.59679 L 651.16108,330.66029 L 652.48256,330.66029 L 649.14836,338.95513 M 662.46483,327.70559 L 662.46483,328.74244 L 661.27209,328.74244 C 660.82482,328.74245 660.51309,328.83281 660.3369,329.0135 C 660.16522,329.19424 660.07938,329.51953 660.07938,329.98938 L 660.07938,330.66029 L 662.13276,330.66029 L 662.13276,331.62938 L 660.07938,331.62938 L 660.07938,338.25033 L 658.82567,338.25033 L 658.82567,331.62938 L 657.63294,331.62938 L 657.63294,330.66029 L 658.82567,330.66029 L 658.82567,330.13168 C 658.82567,329.28685 659.02219,328.67242 659.41524,328.28839 C 659.80831,327.89986 660.43177,327.70561 661.28566,327.70559 L 662.46483,327.70559 M 667.89985,331.82591 C 667.75979,331.74458 667.60619,331.68586 667.43902,331.6497 C 667.27639,331.60905 667.09566,331.58871 666.89688,331.58871 C 666.19209,331.58871 665.64994,331.81913 665.27044,332.27996 C 664.89545,332.73626 664.70796,333.39361 664.70796,334.25201 L 664.70796,338.25033 L 663.45425,338.25033 L 663.45425,330.66029 L 664.70796,330.66029 L 664.70796,331.83946 C 664.97,331.37864 665.3111,331.03754 665.73127,330.81616 C 666.15143,330.59026 666.66195,330.47732 667.26282,330.47731 C 667.34867,330.47732 667.44354,330.48411 667.54745,330.49764 C 667.65136,330.50668 667.76656,330.5225 667.89308,330.54508 L 667.89985,331.82591 M 672.67074,334.43498 C 671.66324,334.43498 670.96523,334.55019 670.5767,334.7806 C 670.18815,335.01102 669.99388,335.40407 669.99388,335.95977 C 669.99388,336.40253 670.13846,336.75492 670.4276,337.01695 C 670.72126,337.27448 671.11884,337.40324 671.62031,337.40324 C 672.31156,337.40324 672.86499,337.15926 673.28065,336.67133 C 673.70081,336.17889 673.91088,335.52605 673.91089,334.71283 L 673.91089,334.43498 L 672.67074,334.43498 M 675.15783,333.91994 L 675.15783,338.25033 L 673.91089,338.25033 L 673.91089,337.09828 C 673.62627,337.5591 673.27159,337.90019 672.84693,338.12158 C 672.42225,338.33843 671.90268,338.44687 671.28826,338.44687 C 670.51117,338.44687 669.89223,338.23001 669.43141,337.79629 C 668.9751,337.35804 668.74695,336.77299 668.74695,336.0411 C 668.74695,335.18721 669.03158,334.54341 669.60083,334.1097 C 670.1746,333.67599 671.02848,333.45912 672.16246,333.45912 L 673.91089,333.45912 L 673.91089,333.33714 C 673.91088,332.76337 673.72113,332.32062 673.34164,332.00887 C 672.96665,331.69263 672.43805,331.53451 671.75586,331.53449 C 671.32214,331.53451 670.89971,331.58646 670.48859,331.69036 C 670.07747,331.79429 669.68214,331.95015 669.30266,332.15797 L 669.30266,331.00591 C 669.75894,330.82972 670.20172,330.69869 670.6309,330.61285 C 671.0601,330.5225 671.478,330.47732 671.88462,330.47731 C 672.98246,330.47732 673.80245,330.76194 674.3446,331.33119 C 674.88675,331.90046 675.15782,332.76337 675.15783,333.91994 M 683.64243,332.1173 C 683.95415,331.55709 684.32689,331.14371 684.76061,330.87715 C 685.19431,330.6106 685.70483,330.47732 686.29217,330.47731 C 687.08278,330.47732 687.69269,330.75516 688.12191,331.31086 C 688.55109,331.86205 688.76569,332.64816 688.76571,333.6692 L 688.76571,338.25033 L 687.51201,338.25033 L 687.51201,333.70986 C 687.51199,332.98249 687.38324,332.4426 687.12571,332.09021 C 686.8682,331.73781 686.47513,331.56161 685.94655,331.5616 C 685.30049,331.56161 684.78997,331.77621 684.41497,332.20541 C 684.03999,332.63461 683.85249,333.21967 683.85251,333.9606 L 683.85251,338.25033 L 682.5988,338.25033 L 682.5988,333.70986 C 682.59878,332.97797 682.47003,332.43809 682.21251,332.09021 C 681.95499,331.73781 681.55742,331.56161 681.01979,331.5616 C 680.38277,331.56161 679.87677,331.77847 679.50178,332.21218 C 679.1268,332.64139 678.9393,333.22419 678.9393,333.9606 L 678.9393,338.25033 L 677.6856,338.25033 L 677.6856,330.66029 L 678.9393,330.66029 L 678.9393,331.83946 C 679.22394,331.37413 679.56503,331.03076 679.96261,330.80938 C 680.36018,330.58801 680.8323,330.47732 681.37897,330.47731 C 681.93013,330.47732 682.39775,330.61737 682.78177,330.89748 C 683.17031,331.17758 683.45719,331.5842 683.64243,332.1173 M 697.75178,334.14359 L 697.75178,334.75349 L 692.01859,334.75349 C 692.0728,335.6119 692.33032,336.26699 692.79114,336.71877 C 693.25649,337.16605 693.90253,337.38968 694.72931,337.38968 C 695.20822,337.38968 695.6713,337.33094 696.11856,337.21348 C 696.57034,337.09601 697.01762,336.91982 697.46038,336.68489 L 697.46038,337.86406 C 697.01311,338.05381 696.55453,338.19839 696.08467,338.29778 C 695.61482,338.39717 695.13818,338.44687 694.65477,338.44687 C 693.44397,338.44687 692.48393,338.09447 691.77462,337.38968 C 691.06984,336.68489 690.71743,335.73163 690.71743,334.52986 C 690.71743,333.28744 691.05176,332.30255 691.72041,331.57517 C 692.39357,330.84327 693.29942,330.47732 694.43792,330.47731 C 695.45895,330.47732 696.26539,330.80712 696.85725,331.46673 C 697.45361,332.12184 697.75178,333.01411 697.75178,334.14359 M 696.50485,333.77764 C 696.49581,333.09543 696.30379,332.55102 695.92881,332.14441 C 695.55835,331.73781 695.06589,331.53451 694.45147,331.53449 C 693.7557,331.53451 693.19775,331.73104 692.77758,332.12409 C 692.36195,332.51714 692.12248,333.07058 692.05925,333.78441 L 696.50485,333.77764 M 699.07326,330.66029 L 700.32019,330.66029 L 701.87888,336.58325 L 703.43076,330.66029 L 704.90133,330.66029 L 706.46,336.58325 L 708.01191,330.66029 L 709.25884,330.66029 L 707.27323,338.25033 L 705.80265,338.25033 L 704.16944,332.02921 L 702.52944,338.25033 L 701.05888,338.25033 L 699.07326,330.66029 M 714.0975,331.53449 C 713.42885,331.53451 712.90025,331.79656 712.51172,332.3206 C 712.12319,332.84018 711.92892,333.55398 711.92892,334.46208 C 711.92892,335.37019 712.12092,336.08628 712.50494,336.61035 C 712.89348,337.1299 713.42433,337.38968 714.0975,337.38968 C 714.76162,337.38968 715.28796,337.12764 715.67651,336.60357 C 716.06504,336.07949 716.2593,335.36567 716.25931,334.46208 C 716.2593,333.56304 716.06504,332.85147 715.67651,332.3274 C 715.28796,331.7988 714.76162,331.53451 714.0975,331.53449 M 714.0975,330.47731 C 715.18179,330.47732 716.03341,330.82972 716.65236,331.53449 C 717.27131,332.2393 717.58078,333.21516 717.58079,334.46208 C 717.58078,335.70451 717.27131,336.68037 716.65236,337.38968 C 716.03341,338.09447 715.18179,338.44687 714.0975,338.44687 C 713.00869,338.44687 712.1548,338.09447 711.53586,337.38968 C 710.92143,336.68037 710.61419,335.70451 710.61421,334.46208 C 710.61419,333.21516 710.92143,332.2393 711.53586,331.53449 C 712.1548,330.82972 713.00869,330.47732 714.0975,330.47731 M 724.03912,331.82591 C 723.89905,331.74458 723.74545,331.68586 723.57829,331.6497 C 723.41564,331.60905 723.23493,331.58871 723.03613,331.58871 C 722.33135,331.58871 721.7892,331.81913 721.4097,332.27996 C 721.03471,332.73626 720.84723,333.39361 720.84723,334.25201 L 720.84723,338.25033 L 719.59352,338.25033 L 719.59352,330.66029 L 720.84723,330.66029 L 720.84723,331.83946 C 721.10925,331.37864 721.45036,331.03754 721.87053,330.81616 C 722.29069,330.59026 722.80121,330.47732 723.40209,330.47731 C 723.48793,330.47732 723.58279,330.48411 723.68672,330.49764 C 723.79063,330.50668 723.90583,330.5225 724.03234,330.54508 L 724.03912,331.82591 M 725.31315,327.70559 L 726.56686,327.70559 L 726.56686,333.9335 L 730.28735,330.66029 L 731.87991,330.66029 L 727.85446,334.21134 L 732.04932,338.25033 L 730.42289,338.25033 L 726.56686,334.54341 L 726.56686,338.25033 L 725.31315,338.25033 L 725.31315,327.70559" />
      </g>
      <path
         id="path1918"
         style="font-size:81.82437897px;font-style:normal;font-weight:normal;fill:#babdb6;fill-opacity:1;stroke:none;stroke-width:1px;stroke-linecap:butt;stroke-linejoin:miter;stroke-opacity:1;font-family:Bitstream Vera Sans"
         d="M 360.96948,724.09745 C 364.13583,724.03111 372.25331,722.31605 376.91771,721.55279 C 381.75092,720.7619 381.45763,729.25812 376.41817,729.94288 C 370.22873,730.78391 359.83516,731.95814 353.08478,732.24892 C 348.36655,732.45217 348.43877,724.26168 353.36264,720.90176 C 366.52941,711.91709 376.32436,706.68887 378.91909,696.98452 C 381.57274,687.05976 371.64148,685.76713 358.20814,694.31149 C 352.87486,697.70375 350.31766,690.49584 356.79696,686.58737 C 396.7964,662.45878 398.11279,703.35011 360.96948,724.09745 z M 416.19296,687.55707 C 410.45344,680.10485 388.40891,689.55567 384.28666,710.40258 C 380.11371,731.50592 403.96033,732.17974 408.95462,722.44559 C 410.68838,741.04306 399.25441,740.90419 388.88197,740.66714 C 384.15618,740.55914 385.236,749.78055 390.13985,750.36563 C 417.68441,753.65199 421.68642,744.41971 418.49625,711.73261 L 421.42897,696.44951 C 430.91815,672.44235 437.76777,667.56131 445.30237,662.11229 C 452.54542,656.87412 447.72361,654.49935 440.61426,659.04268 C 432.60622,664.16033 420.54284,677.6107 416.19296,687.55707 z M 411.56995,704.8874 C 409.54305,723.16901 388.01022,725.80267 391.82076,708.22932 C 395.50197,691.25237 416.7422,687.49397 411.56995,704.8874 z M 472.21631,702.61002 C 472.38677,707.49665 470.15406,712.71465 461.59268,712.39149 L 434.57019,710.55269 C 438.62427,726.88388 454.52451,728.29964 467.39383,721.07818 C 472.02743,718.47809 480.51952,728.53624 474.07513,732.83687 C 468.91647,736.27949 462.10115,737.2381 454.85061,736.22392 C 437.4825,733.79453 423.29885,722.15416 425.67342,705.34955 C 427.93703,689.33024 442.56517,681.17181 453.40343,680.73874 C 464.46486,680.29675 473.6093,689.09586 472.21631,702.61002 z M 461.83261,702.55818 C 462.51986,695.22265 458.65977,689.76358 450.4976,689.75635 C 442.96306,689.74967 437.22684,694.09245 435.61903,701.92711 L 461.83261,702.55818 z M 492.64456,707.4226 C 494.86042,719.02534 503.48011,727.72776 512.87231,726.53156 C 523.41313,725.18906 525.23227,716.20709 524.21062,705.05632 C 523.24754,694.54471 519.1703,688.41571 508.40165,688.86487 C 498.14767,689.29256 492.23149,696.52934 492.64456,707.4226 z M 510.19848,679.76027 C 529.74443,679.20082 536.00153,689.69595 536.80687,703.63771 C 537.68596,718.85606 534.37918,733.69006 516.27698,736.4657 C 499.55597,739.02955 482.73555,724.4702 481.06488,707.68913 C 479.57704,692.74446 491.44834,680.19058 510.19848,679.76027 z M 594.81437,686.66597 C 612.86176,673.57638 635.82404,684.65754 634.66418,696.42139 C 634.66418,696.42139 633.3908,710.93887 633.03933,716.31638 C 632.73096,721.03451 622.12118,720.08538 622.48182,715.13861 C 622.87447,709.75278 624.11093,697.74636 624.11093,697.74636 C 625.59435,685.83348 601.84248,683.55676 599.79863,696.46853 C 599.79863,696.46853 598.4998,709.67113 598.23994,715.09474 C 597.99636,720.17864 585.73727,721.95849 585.78765,716.40179 C 585.84414,710.1721 586.81752,696.73755 586.81752,696.73755 C 589.08133,682.36642 562.36988,682.93047 560.52745,698.6687 C 560.52745,698.6687 560.77741,713.29351 561.59392,720.96019 C 562.23747,727.00283 550.36467,730.46332 549.20431,723.90197 C 547.83052,716.13368 547.09415,697.24446 547.09415,697.24446 C 549.31261,679.9015 583.78299,671.87033 594.81437,686.66597 z M 436.91509,745.18034 C 436.51373,743.98882 435.93857,743.01393 435.20268,742.25249 C 434.47422,741.49875 433.65477,741.03187 432.72755,740.85953 C 431.81527,740.68996 431.19847,740.88401 430.88327,741.44026 C 430.5698,741.99345 430.58854,742.85745 430.95138,744.02504 C 431.31157,745.18411 431.85806,746.13084 432.58896,746.86676 C 433.32653,747.6094 434.17993,748.07278 435.13418,748.26396 C 436.10347,748.45816 436.74153,748.28872 437.05319,747.75388 C 437.36656,747.21612 437.32128,746.35918 436.91509,745.18034 M 440.10015,749.37106 C 440.7217,751.03277 440.7554,752.17075 440.20042,752.78913 C 439.64419,753.4089 438.48871,753.53407 436.74178,753.17336 C 436.10155,753.04116 435.4824,752.87133 434.88791,752.67272 C 434.29808,752.47566 433.71107,752.24232 433.12721,751.96616 L 432.59788,750.4641 C 433.20498,750.81885 433.78631,751.10852 434.34064,751.33204 C 434.89778,751.55669 435.44615,751.72436 435.98372,751.83482 C 437.17938,752.0805 437.97719,751.99489 438.37761,751.57673 C 438.77619,751.1605 438.77435,750.40192 438.36875,749.29676 L 438.08083,748.5022 C 437.91271,749.00411 437.58652,749.33763 437.10226,749.5031 C 436.61932,749.66812 435.97301,749.66827 435.16333,749.5041 C 433.83143,749.23403 432.60831,748.57348 431.51178,747.51111 C 430.42411,746.45733 429.65048,745.18294 429.19899,743.68399 C 428.74442,742.17481 428.78337,741.02792 429.28316,740.24386 C 429.78407,739.45806 430.65866,739.17241 431.91058,739.401 C 432.67231,739.54009 433.37117,739.80803 434.0116,740.20343 C 434.65666,740.60168 435.25323,741.13173 435.80118,741.79539 L 435.32269,740.25434 L 437.06979,740.57117 L 440.10015,749.37106 M 452.22017,747.67202 L 452.55313,748.50248 L 443.80697,746.95863 C 444.31749,748.11561 445.03293,749.05862 445.96694,749.78054 C 446.90361,750.50452 448.0166,750.97841 449.29069,751.21008 C 450.03317,751.34509 450.71954,751.39493 451.35173,751.36325 C 451.99218,751.33116 452.59397,751.21877 453.15718,751.02496 L 453.80257,752.58756 C 453.20419,752.71559 452.5648,752.78012 451.88245,752.7795 C 451.20272,752.77888 450.48725,752.71077 449.73393,752.57219 C 447.86184,752.22782 446.19856,751.49719 444.76351,750.36952 C 443.34046,749.25128 442.34029,747.89641 441.76118,746.3007 C 441.16006,744.64434 441.19206,743.4072 441.82695,742.59279 C 442.46797,741.77052 443.62371,741.49706 445.29877,741.78084 C 446.81846,742.03829 448.18231,742.7001 449.42136,743.75818 C 450.66641,744.82139 451.60747,746.12307 452.22017,747.67202 M 450.1033,746.84973 C 449.72716,745.91425 449.14522,745.11962 448.3678,744.46136 C 447.59707,743.80876 446.7585,743.40141 445.83907,743.2434 C 444.80508,743.0657 444.07139,743.18922 443.64258,743.61663 C 443.2168,744.04102 443.13308,744.72699 443.38836,745.67182 L 450.1033,746.84973 M 458.50691,745.24322 C 457.46651,745.09438 456.79646,745.34622 456.48511,745.98802 C 456.17651,746.62414 456.27133,747.56711 456.78667,748.81454 C 457.29998,750.05704 458.00616,751.07519 458.91633,751.87272 C 459.82361,752.66773 460.82196,753.14258 461.89145,753.30124 C 462.95109,753.45844 463.6381,753.22786 463.94984,752.60734 C 464.26255,751.98489 464.14794,751.05359 463.61434,749.80712 C 463.08108,748.56146 462.35192,747.52477 461.43607,746.70341 C 460.51513,745.87749 459.54259,745.38829 458.50691,745.24322 M 457.90591,743.74468 C 459.58935,743.97595 461.1167,744.65897 462.50177,745.78451 C 463.88861,746.9115 464.96173,748.3491 465.70953,750.08178 C 466.45,751.79745 466.54331,753.06091 465.96625,753.87861 C 465.394,754.68949 464.23408,754.96386 462.49743,754.70502 C 460.76516,754.44684 459.19685,753.76916 457.82406,752.67275 C 456.44903,751.57454 455.42182,750.18283 454.73164,748.48936 C 454.03532,746.78083 453.97482,745.49907 454.5354,744.65868 C 455.09987,743.81247 456.22209,743.50518 457.90591,743.74468 M 476.87992,748.07192 C 477.0186,747.30545 477.34553,746.75321 477.85696,746.41381 C 478.37006,746.07331 479.08628,745.93124 480.00225,745.98184 C 481.23901,746.05016 482.36032,746.49863 483.38317,747.32899 C 484.39605,748.15126 485.22746,749.28431 485.86669,750.72872 L 488.63562,756.99276 L 486.69547,756.91567 L 483.94263,750.70456 C 483.48733,749.67736 482.94655,748.90072 482.32329,748.3771 C 481.69823,747.85197 480.9752,747.56745 480.14663,747.51838 C 479.13641,747.45855 478.47018,747.71368 478.15001,748.28637 C 477.83082,748.85732 477.90068,749.66384 478.3626,750.70712 L 480.96974,756.57131 L 478.98999,756.41416 L 476.22905,750.19859 C 475.77356,749.16592 475.2317,748.38375 474.61063,747.85178 C 473.98296,747.31416 473.25018,747.00666 472.40118,746.9275 C 471.39816,746.83398 470.73573,747.06646 470.40713,747.62197 C 470.08159,748.17228 470.13874,748.96113 470.58957,749.9945 L 473.17312,755.84927 L 471.17123,755.62167 L 466.59879,745.0931 L 468.56972,745.30719 L 469.29025,746.99802 C 469.45414,746.37982 469.78203,745.94303 470.27113,745.68625 C 470.7616,745.42876 471.43629,745.33986 472.2947,745.41691 C 473.16263,745.49481 473.9823,745.76061 474.76219,746.21291 C 475.54704,746.66809 476.25426,747.28586 476.87992,748.07192 M 499.7948,751.35514 L 500.15452,752.19725 L 491.54301,752.35619 C 492.14503,753.53974 492.9245,754.43977 493.8932,755.04829 C 494.8535,755.65153 495.96065,755.94059 497.19529,755.91768 C 497.91203,755.90437 498.56518,755.80502 499.16029,755.62696 C 499.76283,755.44668 500.32142,755.18419 500.83976,754.84064 L 501.49871,756.40845 C 500.94792,756.68872 500.35587,756.90846 499.71667,757.06351 C 499.07933,757.2181 498.40304,757.30603 497.68011,757.31858 C 495.87455,757.34994 494.22112,756.89128 492.74338,755.94433 C 491.25135,754.98824 490.14822,753.68308 489.4134,752.01797 C 488.64777,750.28306 488.54646,748.89304 489.11415,747.86421 C 489.68858,746.82319 490.84853,746.30257 492.57539,746.28669 C 494.13111,746.27238 495.54092,746.71882 496.84252,747.63514 C 498.1306,748.54194 499.11978,749.77892 499.7948,751.35514 M 497.72354,750.91818 C 497.29774,749.96315 496.67637,749.20612 495.86616,748.64202 C 495.05522,748.07742 494.19057,747.80084 493.25714,747.81061 C 492.20296,747.82164 491.47182,748.1023 491.0775,748.66354 C 490.68656,749.21996 490.66602,750.00201 491.01116,751.00601 L 497.72354,750.91818 M 501.24275,743.04195 L 502.54426,746.16193 L 506.28749,745.85228 L 506.85218,747.22661 L 503.12364,747.54372 L 505.50707,753.25044 C 505.85001,754.08205 506.1861,754.60406 506.52227,754.81589 C 506.86104,755.02935 507.40184,755.09915 508.13919,755.02837 L 509.94489,754.83735 L 510.48264,756.19883 L 508.68591,756.39376 C 507.32442,756.52461 506.283,756.37658 505.5708,755.94904 C 504.84778,755.51499 504.22603,754.66142 503.69522,753.38644 L 501.28279,747.66599 L 499.93097,747.74169 L 499.34105,746.35456 L 500.6971,746.28101 L 499.38246,743.15401 L 501.24275,743.04195 M 515.50436,746.40853 C 515.2666,746.32643 515.02229,746.28219 514.76982,746.26384 C 514.52194,746.24582 514.25956,746.2523 513.98094,746.29276 C 512.99555,746.43586 512.35999,746.86285 512.08072,747.57536 C 511.80504,748.2787 511.90218,749.21843 512.36735,750.39102 L 514.42231,755.68061 L 512.70166,755.92248 L 508.59019,745.61532 L 510.38011,745.40625 L 511.04336,747.06492 C 511.15626,746.37219 511.45121,745.83319 511.91819,745.44044 C 512.38894,745.04452 513.04292,744.78279 513.88679,744.66077 C 514.00755,744.64331 514.1447,744.6361 514.29677,744.63015 C 514.44799,744.62422 514.61686,744.61879 514.8059,744.6235 L 515.50436,746.40853 M 524.90672,754.6241 C 524.82523,755.8488 524.62334,756.67474 524.30426,757.10956 C 523.98596,757.54334 523.46579,757.84003 522.74442,758.00013 L 521.45417,758.27488 L 521.01799,756.99671 L 521.97285,756.79865 C 522.41905,756.70336 522.73109,756.52842 522.90886,756.27379 C 523.08686,756.01881 523.19725,755.48197 523.23828,754.65947 L 523.28283,753.87814 L 515.47302,744.69085 L 517.30621,744.38953 L 523.41819,751.742 L 523.7782,743.14302 L 525.55318,742.75287 L 524.90672,754.6241 M 537.58162,735.41759 L 537.96341,736.79527 L 536.39231,737.2288 C 535.80212,737.38924 535.4233,737.62014 535.26364,737.92521 C 535.10587,738.22668 535.12292,738.69196 535.30694,739.31641 L 535.56826,740.20371 L 538.2331,739.44038 L 538.58487,740.69988 L 535.94208,741.47588 L 538.31301,749.82464 L 536.77655,750.32927 L 534.32117,741.93589 L 532.77309,742.36281 L 532.37343,741.07605 L 533.93405,740.65617 L 533.72097,739.95329 C 533.37814,738.82318 533.38912,737.92967 533.75504,737.27506 C 534.12342,736.61602 534.87693,736.13684 536.01432,735.83765 L 537.58162,735.41759 M 546.01383,738.65059 C 545.81143,738.60596 545.59831,738.59867 545.37437,738.61778 C 545.1548,738.63651 544.91846,738.68086 544.66451,738.76146 C 543.76561,739.04673 543.14553,739.55751 542.81254,740.29461 C 542.48323,741.02357 542.46076,741.92775 542.73518,743.00133 L 543.93863,747.87075 L 542.42058,748.41244 L 539.94176,738.93615 L 541.55917,738.44959 L 541.95264,739.96079 C 542.13516,739.26821 542.46147,738.69815 542.92783,738.2468 C 543.39692,737.79281 544.01753,737.44434 544.79138,737.20488 C 544.90208,737.17063 545.02657,737.14424 545.16411,737.1169 C 545.301,737.0897 545.4537,737.06064 545.62331,737.03848 L 546.01383,738.65059 M 552.70798,739.8224 C 551.4522,740.26039 550.61102,740.70186 550.18676,741.1484 C 549.76278,741.59466 549.62402,742.15289 549.76373,742.8168 C 549.8748,743.34459 550.1352,743.70106 550.55359,743.87691 C 550.96983,744.05185 551.48596,744.01949 552.09548,743.7934 C 552.93703,743.48125 553.55692,742.94796 553.96227,742.19307 C 554.37183,741.43035 554.4932,740.5718 554.31695,739.61229 L 554.25598,739.28283 L 552.70798,739.8224 M 555.7082,738.13198 L 556.57107,743.16318 L 555.0566,743.73174 L 554.82384,742.40596 C 554.57104,743.06704 554.21065,743.62237 553.7405,744.06924 C 553.27286,744.51372 552.66787,744.87452 551.92589,745.15502 C 550.98932,745.50907 550.18914,745.54289 549.53136,745.23953 C 548.86694,744.9331 548.44529,744.33883 548.25315,743.46265 C 548.02816,742.43658 548.20269,741.52925 548.79858,740.75815 C 549.3979,739.9826 550.4157,739.35476 551.83984,738.86921 L 554.03914,738.11931 L 554.01176,737.97318 C 553.88218,737.28386 553.53773,736.83405 552.98476,736.61122 C 552.42891,736.38724 551.71813,736.40956 550.84659,736.69325 C 550.29323,736.87336 549.76725,737.11268 549.27105,737.41214 C 548.77529,737.71134 548.31546,738.06913 547.89125,738.48485 L 547.56751,737.04813 C 548.10313,736.64123 548.63652,736.29897 549.16393,736.01447 C 549.69306,735.72905 550.21882,735.50006 550.74228,735.33422 C 552.15805,734.88567 553.2811,734.9001 554.11023,735.36961 C 554.92988,735.83376 555.46324,736.75518 555.7082,738.13198 M 566.26271,732.51568 C 566.59787,731.75271 567.03358,731.13496 567.57482,730.66604 C 568.11537,730.19772 568.77804,729.85596 569.56141,729.64229 C 570.61437,729.35509 571.45613,729.45354 572.08279,729.92325 C 572.70215,730.38749 573.05753,731.18305 573.1453,732.31223 L 573.52448,737.29634 L 571.92048,737.79181 L 571.50188,732.82279 C 571.43201,732.01374 571.20974,731.45869 570.83488,731.15886 C 570.45841,730.85774 569.9188,730.80314 569.22116,731.00078 C 568.36752,731.24262 567.72052,731.68153 567.28341,732.31545 C 566.84587,732.95 566.67869,733.6899 566.77295,734.52937 L 567.29292,739.30415 L 565.72513,739.84165 L 565.12525,734.75187 C 565.02349,733.91556 564.77928,733.34887 564.39667,733.0493 C 564.00872,732.74557 563.46562,732.697 562.76692,732.91221 C 561.93893,733.16724 561.31983,733.62691 560.9095,734.28809 C 560.5014,734.94567 560.36315,735.70476 560.49065,736.56183 L 561.19417,741.45338 L 559.65566,742.01671 L 558.28016,733.19078 L 559.90972,732.6855 L 560.11976,734.08064 C 560.40568,733.41584 560.78741,732.87225 561.26858,732.45245 C 561.74947,732.03289 562.34997,731.7163 563.06729,731.5025 C 563.79032,731.287 564.42508,731.27132 564.9704,731.44583 C 565.5182,731.62114 565.95004,731.97632 566.26271,732.51568 M 585.21336,729.89691 L 585.22839,730.53812 L 577.52524,732.33833 C 577.64887,733.24327 578.02449,733.85849 578.6605,734.17694 C 579.29484,734.49456 580.1593,734.50605 581.25651,734.23273 C 581.8903,734.07485 582.50517,733.86522 583.09977,733.60299 C 583.69864,733.33889 584.29513,733.02074 584.88419,732.64394 L 584.91596,733.87106 C 584.32225,734.2031 583.7125,734.49342 583.09152,734.74543 C 582.46913,734.99801 581.83759,735.20329 581.20207,735.36601 C 579.60471,735.77501 578.3303,735.74506 577.36368,735.24905 C 576.39553,734.75226 575.87149,733.85552 575.78727,732.55058 C 575.70005,731.19911 576.07126,730.00007 576.92895,728.98165 C 577.7896,727.95973 579.00284,727.27406 580.56598,726.93617 C 581.96063,726.63471 583.08343,726.77 583.9197,727.30864 C 584.75252,727.84507 585.1862,728.70572 585.21336,729.89691 M 583.50644,729.86653 C 583.47276,729.14501 583.19198,728.6224 582.66836,728.29497 C 582.14632,727.96852 581.4653,727.89102 580.62956,728.07632 C 579.68025,728.2868 578.93155,728.67436 578.38804,729.23731 C 577.84657,729.79814 577.56169,730.48097 577.5204,731.27683 L 583.50644,729.86653 M 586.96551,725.87393 L 588.70032,725.57634 L 590.89127,731.36142 L 593.05271,724.91686 L 595.12116,724.64798 L 597.2242,730.4164 L 599.51419,724.17408 L 601.28034,724.02124 L 598.33602,731.95899 L 596.29627,732.21993 L 594.07564,726.18865 L 591.79082,732.91258 L 589.7843,733.27223 L 586.96551,725.87393 M 608.10965,724.50425 C 607.16189,724.53944 606.40256,724.83318 605.8334,725.3831 C 605.26552,725.93181 604.96712,726.66184 604.94022,727.56857 C 604.9133,728.47597 605.16181,729.17459 605.69147,729.66183 C 606.22129,730.14922 606.96124,730.3624 607.91183,730.32124 C 608.84371,730.2809 609.59444,729.99945 610.15936,729.46605 C 610.72261,728.93424 611.02129,728.22396 611.05458,727.32975 C 611.08767,726.44098 610.84102,725.74153 610.31373,725.23184 C 609.78439,724.72015 609.0508,724.47574 608.10965,724.50425 M 608.15327,723.45344 C 609.69155,723.41334 610.88446,723.74117 611.72798,724.42954 C 612.57399,725.11995 612.96682,726.08343 612.9191,727.31284 C 612.87149,728.53973 612.4021,729.50441 611.50937,730.2161 C 610.6152,730.92893 609.4004,731.30273 607.88354,731.3702 C 606.34472,731.43864 605.16026,731.17192 604.30965,730.52777 C 603.46123,729.88528 603.05326,728.94239 603.08641,727.69645 C 603.11964,726.44706 603.57923,725.43305 604.4787,724.67403 C 605.37616,723.91672 606.60775,723.51065 608.15327,723.45344 M 622.08944,725.02494 C 621.89851,724.93262 621.68668,724.86373 621.45664,724.81132 C 621.23111,724.75993 620.98043,724.72154 620.70395,724.70637 C 619.71893,724.65235 618.94883,724.84197 618.39726,725.2712 C 617.84944,725.6975 617.55909,726.33377 617.52303,727.17628 L 617.37676,731.10867 L 615.61836,731.06787 L 615.92156,723.60284 L 617.68492,723.65567 L 617.62856,724.81012 C 618.01797,724.37232 618.51252,724.0587 619.11223,723.86739 C 619.71112,723.67635 620.43006,723.60297 621.26839,723.65286 C 621.3877,723.65996 621.51931,723.6774 621.66373,723.69783 C 621.80745,723.71816 621.96732,723.74215 622.14209,723.77604 L 622.08944,725.02494 M 624.06759,721.15433 L 625.79512,721.30863 L 625.49227,727.35949 L 630.70827,724.73432 L 632.84356,725.02568 L 627.24765,727.80419 L 632.78099,732.47647 L 630.59443,732.17412 L 625.46707,727.95555 L 625.33134,731.59121 L 623.60019,731.44498 L 624.06759,721.15433"
         sodipodi:nodetypes="csssssssccscssccssccsccccsssssccscccsssccssscccssccssccsscccsssssssccsssccsssccssssssscccccccsssccsssssssccssscccsssssssccsssssssccsssccccsssccccsssccccccsssccccsssccsssssssccsssccccccccsccccsccccccccsssccccccssscccsccccscccccccccccsccccccccccccscccsssccccccssscccssssscccccccssssscccsssccsssccsssccccsssccccsssccccccsssccccsssccsssssssccssscccccccccccccccccsssssssccsssssssccsssccccccssscccccccccccccc" />
      <path
         sodipodi:nodetypes="csssssssccscssccssccsccccsssssccscccsssccssscccssccssccsscc"
         d="M 84.588954,642.17106 C 88.168598,642.157 97.760519,640.60306 103.51345,640.00225 C 109.63124,639.36334 109.30443,647.96514 102.91565,648.47554 C 95.323961,649.08204 83.329609,650.01497 76.123245,650.25941 C 71.365654,650.42079 71.340095,642.10783 76.405704,638.90347 C 90.719188,629.84918 102.50415,624.96038 105.13513,615.17041 C 107.81104,605.21326 95.812279,603.6135 81.341984,612.27265 C 75.817141,615.57877 73.185129,608.26193 79.842329,604.56124 C 123.3042,580.40105 130.22601,622.35375 84.588954,642.17106 z M 151.83106,607.01925 C 143.19411,599.06862 116.95457,608.02357 112.58922,628.9557 C 108.129,650.34266 139.15937,652.27917 145.85244,642.62007 C 147.94773,661.86558 132.548,660.84392 118.7409,659.95251 C 112.58722,659.55522 113.60574,668.90479 119.92088,669.84998 C 156.31068,675.29643 162.43563,666.25937 158.00894,632.19562 L 160.02076,616.5239 C 166.98143,592.20487 173.91845,587.64784 180.98127,582.39025 C 187.48566,577.54836 181.39931,574.75571 174.72839,578.93011 C 166.90319,583.82681 155.42201,596.98391 151.83106,607.01925 z M 148.20929,624.66292 C 146.66312,643.40604 118.29735,644.91972 122.28247,627.0536 C 126.08928,609.98686 152.52376,606.9833 148.20929,624.66292 z M 221.46565,627.35688 C 222.48466,632.58052 220.78899,637.87322 211.21734,636.57484 L 178.65741,632.1544 C 184.81205,649.59809 204.19104,652.71095 218.55763,646.43872 C 223.47209,644.29314 233.16053,656.0636 226.3036,659.72053 C 220.61658,662.75353 212.90398,662.76795 204.5205,661.01058 C 183.39205,656.58159 165.64294,643.46051 166.71918,626.05715 C 167.73531,609.6258 183.08862,601.93586 195.5613,602.38326 C 207.72096,602.81944 219.9497,613.14455 221.46565,627.35688 z M 210.02803,626.17257 C 209.35651,618.47067 203.78699,612.28804 194.45938,611.60979 C 185.56861,610.96331 179.5093,615.12702 178.85691,623.20558 L 210.02803,626.17257 z M 243.49025,635.18056 C 247.24535,647.94265 256.26974,658.54325 265.15825,658.92947 C 274.75105,659.34628 275.87609,650.0168 272.78698,637.94147 C 269.79934,626.26281 264.06588,618.92008 254.3755,617.67594 C 244.76732,616.44237 240.86606,623.44013 243.49025,635.18056 z M 253.20545,608.15928 C 270.47616,610.91633 279.88482,623.29637 283.57623,638.82613 C 287.45891,655.16061 284.83327,670.32973 268.51264,670.06065 C 252.43674,669.7956 235.99978,651.7892 231.72769,633.86182 C 227.83249,617.51602 235.56385,605.85595 253.20545,608.15928 z M 328.74226,630.84629 C 340.42014,617.77732 365.04525,630.91328 367.61309,644.29413 C 367.61309,644.29413 369.93451,660.14718 370.47687,665.84907 C 370.94218,670.74093 361.14365,669.67139 360.66897,664.53197 C 360.14068,658.81225 358.42024,645.79527 358.42024,645.79527 C 356.24522,632.42248 333.98985,628.23114 336.03902,642.41292 C 336.03902,642.41292 338.00371,656.58844 338.64048,662.35428 C 339.22582,667.65436 328.62139,667.71289 327.84636,661.89312 C 326.95924,655.23169 324.65942,640.82302 324.65942,640.82302 C 322.29799,625.19296 299.57275,621.19586 302.65734,638.13774 C 302.65734,638.13774 306.03771,653.96466 307.62771,662.34076 C 308.85219,668.79128 298.87555,670.12094 297.32111,663.03018 C 295.43523,654.42749 290.89651,633.92018 290.89651,633.92018 C 287.4953,615.35879 313.94814,612.5212 328.74226,630.84629 z "
         style="font-size:81.82437897px;font-style:normal;font-weight:normal;fill:#babdb6;fill-opacity:1;stroke:none;stroke-width:1px;stroke-linecap:butt;stroke-linejoin:miter;stroke-opacity:1;font-family:Bitstream Vera Sans"
         id="path1935" />
      <path
         id="path1937"
         style="font-size:81.82437897px;font-style:normal;font-weight:normal;fill:#babdb6;fill-opacity:1;stroke:none;stroke-width:1px;stroke-linecap:butt;stroke-linejoin:miter;stroke-opacity:1;font-family:Bitstream Vera Sans"
         d="M -44.403254,817.66436 C -35.75746,817.56072 -13.23746,813.4911 -0.46071,811.93698 C 12.96091,810.3044 13.00631,828.88551 -1.24567,830.76132 C -18.42538,833.02252 -47.358631,836.6946 -65.415309,837.26594 C -77.399529,837.64515 -77.412121,816.88376 -64.676317,809.36425 C -29.93487,788.85219 -3.4787,778.67863 2.06737,757.45802 C 7.64385,736.12106 -18.25574,728.80377 -52.301943,744.94167 C -65.838616,751.35802 -72.296261,731.65167 -55.76909,725.14085 C 40.36414,687.26956 52.80936,776.98444 -44.403254,817.66436 z M 88.61131,754.92625 C 73.63623,736.75422 26.09681,744.62094 18.34605,788.21155 C 10.15829,834.25973 74.26025,837.99854 84.80706,820.40265 C 93.28978,857.7057 63.22392,854.08457 34.40887,853.53252 C 21.37159,853.28277 24.80974,872.83455 38.26887,874.36059 C 113.37007,882.87581 121.88215,868.74778 104.33523,803.35345 L 105.05875,772.72019 C 115.63218,725.23709 127.27147,717.28648 139.43137,707.62492 C 150.84149,698.55903 142.68708,689.50139 128.93915,689.04274 C 107.81627,688.33804 90.86533,731.30654 88.61131,754.92625 z M 85.79438,785.72225 C 86.46576,822.11179 31.32181,822.0567 37.87146,785.26124 C 43.97889,750.95023 91.52815,751.55521 85.79438,785.72225 z M 213.32656,806.66664 C 217.12777,818.26494 216.23143,829.62091 198.51289,826.04909 L 140.02744,809.63518 C 156.70473,845.26846 192.81998,856.92055 215.95074,847.01199 C 223.97412,843.57502 247.31938,867.17121 236.38575,873.2714 C 227.45511,878.25409 213.02318,876.9974 197.05677,871.60198 C 156.63349,857.94202 119.82824,828.1611 118.05877,793.82017 C 116.3859,761.35418 141.46214,748.23383 162.69987,749.91235 C 182.84453,751.50447 206.40636,774.01188 213.32656,806.66664 z M 192.58039,803.66296 C 189.09421,786.49026 177.73821,772.58325 162.0126,770.03426 C 146.70508,767.55303 137.52971,774.90652 138.04669,791.52838 L 192.58039,803.66296 z M 256.66154,822.49707 C 269.41884,850.04823 291.6143,870.9776 308.59448,870.29318 C 327.40272,869.5351 324.57919,849.69413 313.79359,822.60113 C 303.12182,795.79403 290.16287,778.92656 271.04845,778.35227 C 252.47196,777.79417 247.32961,795.49163 256.66154,822.49707 z M 266.74956,755.33148 C 301.29355,757.79247 322.14131,786.26584 335.78293,821.98926 C 349.62398,858.23496 352.92657,889.61734 320.57261,891.42006 C 290.27052,893.10847 249.42772,859.85182 234.42728,820.81599 C 220.61629,784.87546 233.18338,754.15484 266.74956,755.33148 z M 427.62404,779.37468 C 457.78478,750.37439 531.53453,762.72585 541.15077,788.51762 C 541.15077,788.51762 552.10697,818.69125 555.7285,829.46715 C 558.80042,838.6078 529.92251,847.55841 527.32588,838.78576 C 524.39633,828.88831 517.33132,805.98756 517.33132,805.98756 C 510.02332,781.77122 448.03849,785.84512 456.61065,815.99543 C 456.61065,815.99543 466.18265,844.78311 470.12898,855.9654 C 473.6614,865.97482 447.1192,871.1487 442.97668,860.06441 C 438.09058,846.99057 427.30476,816.0667 427.30476,816.0667 C 417.6492,781.54628 363.00118,773.78731 373.1482,810.19001 C 373.1482,810.19001 385.24723,842.67073 391.98436,858.79075 C 397.02171,870.84371 375.81933,875.2708 369.05502,860.42503 C 360.61262,841.89625 342.57138,794.50938 342.57138,794.50938 C 330.25092,751.1349 389.25293,742.57214 427.62404,779.37468 z "
         sodipodi:nodetypes="csssssssccscssccssccsccccsssssccscccsssccssscccssccssccsscc" />
    </g>
  </g>
</svg>
